<?xml version="1.0" encoding="UTF-8"?>
<svg version="1.1" xmlns="http://www.w3.org/2000/svg" width="2560" height="424">
<path d="M0 0 C844.8 0 1689.6 0 2560 0 C2560 139.92 2560 279.84 2560 424 C1715.2 424 870.4 424 0 424 C0 284.08 0 144.16 0 0 Z " fill="#FEFEFE" transform="translate(0,0)"/>
<path d="M0 0 C1.0530835 0.41813965 1.0530835 0.41813965 2.12744141 0.84472656 C12.48801796 5.10987387 20.27327245 10.96467811 28 19 C28.66386719 19.65613281 29.32773437 20.31226562 30.01171875 20.98828125 C50.00636734 41.97142932 52.91368667 72.23545972 52.31640625 99.74609375 C51.28280615 128.52018688 41.53666149 152.60581379 20.46484375 172.37890625 C0.61872822 189.38525241 -26.86155424 190.52251766 -51.70507812 188.81396484 C-72.65794664 186.7514431 -89.90317952 176.95613126 -103.65234375 161.10546875 C-123.34206703 135.05999453 -127.35460757 100.68977989 -123.18017578 69.01635742 C-119.32674543 44.60873983 -108.47374752 24.42760358 -89.0625 9.0625 C-65.08531476 -7.89545743 -27.29484231 -11.08667587 0 0 Z " fill="#010101" transform="translate(828,107)"/>
<path d="M0 0 C1.31452148 -0.01385742 2.62904297 -0.02771484 3.98339844 -0.04199219 C12.17349816 -0.00278536 19.42048615 0.98668074 27.25 3.375 C28.05783936 3.60807861 28.86567871 3.84115723 29.69799805 4.08129883 C40.28050064 7.20757532 50.3519467 12.61673526 58.25 20.375 C58.25 21.035 58.25 21.695 58.25 22.375 C59.24 22.705 60.23 23.035 61.25 23.375 C73.16513578 35.26663453 79.41060264 50.2733413 83.25 66.375 C83.41371094 67.02597656 83.57742188 67.67695313 83.74609375 68.34765625 C90.56960461 96.26201886 87.47135072 130.8179635 72.82421875 155.90625 C60.18890101 175.72143813 43.62801928 187.6717588 20.78637695 192.94360352 C13.36483025 194.4644622 6.1231941 194.72260119 -1.4375 194.6875 C-2.66976318 194.68331055 -3.90202637 194.67912109 -5.17163086 194.67480469 C-27.59597735 194.39746917 -47.58482444 188.51393339 -63.75 172.375 C-64.5234375 171.61316406 -65.296875 170.85132813 -66.09375 170.06640625 C-80.19516802 155.36133163 -86.91146188 136.2024006 -89.75 116.375 C-89.88148437 115.4571875 -90.01296875 114.539375 -90.1484375 113.59375 C-93.3324053 85.71251845 -89.58456671 55.01565131 -72.625 31.9375 C-61.38620827 18.21486152 -49.12470246 8.2221205 -31.75 3.375 C-30.71101563 3.07722656 -29.67203125 2.77945313 -28.6015625 2.47265625 C-19.14026494 0.24586496 -9.68249527 0.05662947 0 0 Z " fill="#010101" transform="translate(1609.75,101.625)"/>
<path d="M0 0 C16.479375 -0.0825 32.95875 -0.165 49.9375 -0.25 C55.10784912 -0.28641602 60.27819824 -0.32283203 65.60522461 -0.36035156 C72.00305176 -0.37841797 72.00305176 -0.37841797 75.01441956 -0.3817749 C77.08204103 -0.38784829 79.1496499 -0.40177027 81.21717834 -0.42230225 C100.67738571 -0.60560467 120.23519625 0.3344865 135.3828125 14.25 C146.09137501 25.83800967 151.60320611 39.21313385 151.2421875 54.9375 C150.28182267 67.08146814 145.25727013 81.2531634 135.9765625 89.6015625 C132.24264081 92.24334899 128.18157252 94.17424299 124 96 C124.64066406 96.4125 125.28132813 96.825 125.94140625 97.25 C135.14769596 103.39667331 141.32553872 109.0807095 144 120 C144.17901855 120.71671875 144.35803711 121.4334375 144.54248047 122.171875 C145.84413559 128.24709278 146.17745435 134.13684929 146.23828125 140.32421875 C146.24714859 141.16120804 146.25601593 141.99819733 146.26515198 142.86054993 C146.2948893 146.35320791 146.31474947 149.84534538 146.30541992 153.33813477 C146.30278867 155.91748241 146.3309645 158.4951034 146.36328125 161.07421875 C146.34797112 162.24013802 146.34797112 162.24013802 146.33235168 163.42961121 C146.45415145 170.30755416 149.16729065 175.16729065 154 180 C154 181.32 154 182.64 154 184 C139.81 184 125.62 184 111 184 C107.47939212 169.9175685 106.76973049 157.44127125 106.5703125 143.0546875 C106.36097028 134.41932103 105.74136219 126.60157225 101.25 119.0625 C95.82929484 114.09352027 88.95712012 112.92075909 81.8425293 112.79467773 C80.82799683 112.77449585 79.81346436 112.75431396 78.76818848 112.73352051 C77.18717346 112.70880676 77.18717346 112.70880676 75.57421875 112.68359375 C74.59634399 112.66494263 73.61846924 112.6462915 72.61096191 112.6270752 C68.96989689 112.55895068 65.32868813 112.49869163 61.6875 112.4375 C53.540625 112.293125 45.39375 112.14875 37 112 C37 135.76 37 159.52 37 184 C24.79 184 12.58 184 0 184 C0 123.28 0 62.56 0 0 Z " fill="#000000" transform="translate(1722,107)"/>
<path d="M0 0 C16.314375 -0.0825 32.62875 -0.165 49.4375 -0.25 C54.55564209 -0.28641602 59.67378418 -0.32283203 64.94702148 -0.36035156 C71.28137207 -0.37841797 71.28137207 -0.37841797 74.26307678 -0.3817749 C76.30986529 -0.38784737 78.35664107 -0.40176735 80.40333557 -0.42230225 C100.99008679 -0.61821356 120.10449112 0.78336716 135.74609375 15.6171875 C146.90181522 27.41093117 150.70106969 41.10367445 150.41015625 56.91796875 C149.81174946 68.24909089 144.51180567 81.08968642 136.0546875 88.765625 C132.2869883 91.71675061 128.37409175 94.03165871 124 96 C126.06310494 97.55201758 128.13063494 99.09498632 130.21875 100.61328125 C139.60395759 107.60397526 142.63241639 114.77087526 144.52294922 126.14672852 C145.03721023 130.30055731 145.18802076 134.35178782 145.24609375 138.53125 C145.27901723 140.16276608 145.31222912 141.79427637 145.34570312 143.42578125 C145.39310089 145.96659599 145.43761391 148.50738473 145.47680664 151.04833984 C145.51673587 153.52203935 145.5682027 155.99529826 145.62109375 158.46875 C145.63371498 159.59561218 145.63371498 159.59561218 145.64659119 160.74523926 C145.78650295 166.77859001 146.1785047 172.1785047 150.625 176.625 C153 179 153 179 153 184 C139.14 184 125.28 184 111 184 C106.57946428 172.94866069 106.64545202 161.63563676 106.46826172 149.89746094 C106.67656422 134.1946301 106.67656422 134.1946301 101 120 C101 119.34 101 118.68 101 118 C100.278125 117.71125 99.55625 117.4225 98.8125 117.125 C97.05226294 116.42090518 95.30040277 115.69504736 93.5625 114.9375 C87.20582305 112.61188648 80.59640689 112.79306579 73.9140625 112.68359375 C72.5077356 112.65561707 72.5077356 112.65561707 71.07299805 112.6270752 C67.59042252 112.55907924 64.10770091 112.49873858 60.625 112.4375 C52.82875 112.293125 45.0325 112.14875 37 112 C37 135.76 37 159.52 37 184 C24.79 184 12.58 184 0 184 C0 123.28 0 62.56 0 0 Z " fill="#000000" transform="translate(907,107)"/>
<path d="M0 0 C109.5625 0 109.5625 0 126.9296875 16.875 C139.73152074 30.50098559 140.65378059 47.22901066 140.2890625 65 C140.0313036 71.95732416 139.09235427 78.33175792 137 85 C136.74476563 85.89332031 136.48953125 86.78664063 136.2265625 87.70703125 C132.45010653 98.98442957 123.35661296 106.73035297 113 112 C96.62876001 119.00996719 79.62875347 118.25243601 62.1875 118.125 C54.205625 118.08375 46.22375 118.0425 38 118 C38 139.78 38 161.56 38 184 C25.46 184 12.92 184 0 184 C0 123.28 0 62.56 0 0 Z " fill="#010101" transform="translate(1362,107)"/>
<path d="M0 0 C11.21072292 9.31928584 17.18525468 21.19104022 19.5859375 35.4609375 C19.5859375 38.4309375 19.5859375 41.4009375 19.5859375 44.4609375 C7.3759375 44.4609375 -4.8340625 44.4609375 -17.4140625 44.4609375 C-18.4040625 39.0159375 -18.4040625 39.0159375 -19.4140625 33.4609375 C-24.64796485 24.73776691 -31.0598538 20.86705266 -40.68505859 18.08276367 C-45.08397278 17.08043459 -49.35483338 16.97204157 -53.8515625 17.0234375 C-54.76881104 17.02956055 -55.68605957 17.03568359 -56.63110352 17.04199219 C-63.49551385 17.20034075 -69.30320239 18.16608942 -75.4140625 21.4609375 C-76.5484375 22.0590625 -77.6828125 22.6571875 -78.8515625 23.2734375 C-83.0744862 26.87837236 -85.08072966 29.92692766 -85.796875 35.37109375 C-85.97125075 40.06180142 -85.80380574 43.5677759 -83.9140625 47.8984375 C-76.04281912 55.96646197 -66.01262427 57.80880757 -55.4140625 60.4609375 C-53.45094346 60.95709944 -51.48782507 61.45326397 -49.52471924 61.94947815 C-43.20753916 63.54451652 -36.88664912 65.12424134 -30.5625 66.69140625 C-29.30550293 67.00352051 -28.04850586 67.31563477 -26.75341797 67.63720703 C-24.8218027 68.11368531 -22.88909155 68.58585121 -20.95361328 69.04638672 C-4.28572089 73.03808961 11.45683718 79.63400017 20.96484375 94.63671875 C27.35267538 106.77595597 28.01801934 123.13324918 24.48828125 136.2734375 C21.96944222 143.96322184 18.14159171 150.5617567 12.5859375 156.4609375 C11.99167969 157.14414062 11.39742187 157.82734375 10.78515625 158.53125 C-2.66501513 173.17884865 -22.55360839 177.5519391 -41.66015625 178.58203125 C-64.6431273 179.5509592 -89.1367351 175.90378905 -107.2890625 160.6484375 C-116.54354779 151.80074277 -122.95564398 140.30743252 -124.4140625 127.4609375 C-124.4140625 124.1609375 -124.4140625 120.8609375 -124.4140625 117.4609375 C-112.5340625 117.4609375 -100.6540625 117.4609375 -88.4140625 117.4609375 C-87.0940625 121.7509375 -85.7740625 126.0409375 -84.4140625 130.4609375 C-79.3602027 138.7308899 -73.82895819 142.75458779 -64.4765625 145.2734375 C-50.19397084 148.16632354 -33.78144391 147.80458808 -20.7890625 140.7109375 C-16.73768158 137.96559385 -13.63228698 135.33383543 -12.4140625 130.4609375 C-11.60130699 124.30721718 -10.77735413 117.60681376 -14.7265625 112.3984375 C-26.59924355 101.5558064 -47.11859968 99.46646053 -62.3515625 96.3984375 C-80.01489989 92.82299004 -101.57179765 87.88093839 -113.21875 73.18359375 C-122.09676564 59.55738566 -123.23206203 43.78138045 -120.90625 28.01953125 C-120.25357262 25.38256458 -119.44610825 22.97154674 -118.4140625 20.4609375 C-117.95580078 19.24664062 -117.95580078 19.24664062 -117.48828125 18.0078125 C-111.29297459 3.67975783 -98.57074843 -5.90666981 -84.4140625 -11.5390625 C-57.04376162 -20.32930951 -23.30458484 -18.0321773 0 0 Z " fill="#010101" transform="translate(1310.4140625,117.5390625)"/>
<path d="M0 0 C14.85 0 29.7 0 45 0 C60.71710784 32.2542387 60.71710784 32.2542387 68 48 C68.79277344 49.71328491 68.79277344 49.71328491 69.6015625 51.46118164 C71.50585699 55.58283422 73.40701672 59.70587364 75.29833984 63.83349609 C76.42310271 66.28715384 77.55464598 68.73757085 78.6875 71.1875 C79.00267578 71.88294922 79.31785156 72.57839844 79.64257812 73.29492188 C81.10183279 76.78736638 81.10183279 76.78736638 84 79 C84.26466064 78.15606689 84.52932129 77.31213379 84.80200195 76.44262695 C86.05937532 72.82937611 87.56087522 69.38404083 89.16796875 65.91796875 C89.63586067 64.89871559 89.63586067 64.89871559 90.11320496 63.85887146 C90.78535853 62.39554628 91.45891026 60.93286265 92.13372803 59.47076416 C93.20018757 57.16000917 94.26297882 54.84760036 95.32470703 52.53466797 C96.42834268 50.13049088 97.532173 47.72640578 98.63708496 45.32281494 C102.23916367 37.48660057 105.81964948 29.64064276 109.39004517 21.78994751 C110.35944498 19.65919019 111.33043341 17.5291618 112.30151367 15.39916992 C112.8964166 14.09167733 113.49122946 12.78414375 114.0859375 11.4765625 C114.6020459 10.34299316 115.1181543 9.20942383 115.64990234 8.04150391 C116.82802505 5.38742567 117.92155256 2.6961186 119 0 C133.52 0 148.04 0 163 0 C153.5500503 18.8998994 153.5500503 18.8998994 149.25 27.125 C148.74251221 28.09671143 148.23502441 29.06842285 147.7121582 30.06958008 C143.78961575 37.5523515 139.76984448 44.97861913 135.70751953 52.38623047 C131.06664057 60.85340577 126.50407839 69.36155979 121.95385742 77.87768555 C121.3838501 78.94414307 120.81384277 80.01060059 120.2265625 81.109375 C119.93214767 81.68445297 119.63773285 82.25953094 119.33439636 82.85203552 C117.25120636 86.86802016 114.94610256 90.63444272 112.45361328 94.41162109 C100.95963554 112.56186804 100.0481071 127.79493593 100.57513428 148.77105713 C100.67465816 153.46914471 100.66599782 158.16828027 100.67672729 162.86724854 C100.70431092 169.91552062 100.86403551 176.94927017 101 184 C88.46 184 75.92 184 63 184 C63.07863281 179.2253125 63.15726563 174.450625 63.23828125 169.53125 C63.25917783 166.45019114 63.27611137 163.37006815 63.27929688 160.2890625 C63.28468126 155.43065411 63.30230377 150.57517208 63.40795898 145.71777344 C63.83358512 125.24174787 62.68095156 110.07159358 50.72129822 92.58853149 C47.70517917 88.05281592 45.1374904 83.26201313 42.5 78.5 C41.41990611 76.59525428 40.33810283 74.69147593 39.25390625 72.7890625 C35.90254699 66.85996704 32.66365829 60.87290096 29.4375 54.875 C25.34792547 47.27464529 21.17867503 39.73127885 16.875 32.25 C12.78209501 25.13211124 8.72951231 17.99452905 4.75 10.8125 C4.27159668 9.95624023 3.79319336 9.09998047 3.30029297 8.21777344 C2.86604004 7.43047852 2.43178711 6.64318359 1.984375 5.83203125 C1.40768066 4.79139526 1.40768066 4.79139526 0.81933594 3.72973633 C0 2 0 2 0 0 Z " fill="#010101" transform="translate(542,107)"/>
<path d="M0 0 C49.17 0 98.34 0 149 0 C149 10.89 149 21.78 149 33 C130.85 33 112.7 33 94 33 C94 82.83 94 132.66 94 184 C81.13 184 68.26 184 55 184 C55 134.17 55 84.34 55 33 C36.85 33 18.7 33 0 33 C0 22.11 0 11.22 0 0 Z " fill="#020202" transform="translate(1887,107)"/>
<path d="M0 0 C14.54212827 11.12461028 20.19357786 26.05854047 23.15234375 43.5625 C23.44354451 45.98784334 23.60085178 48.37128054 23.6875 50.8125 C23.74744141 52.37484375 23.74744141 52.37484375 23.80859375 53.96875 C24.19479324 74.14199377 20.70341521 95.35300835 6.3125 110.625 C-3.4896783 119.70266947 -15.23895422 123.43077178 -28.49438477 123.21679688 C-41.64008987 122.66952318 -53.34332993 117.51534451 -62.3125 107.8125 C-73.32956624 93.31394921 -76.68702389 78.21202517 -76.68310547 60.41064453 C-76.68745204 58.21176027 -76.72380461 56.01493396 -76.76171875 53.81640625 C-76.9057724 35.67935399 -72.52572009 18.42162666 -59.66796875 5.00390625 C-43.71195639 -9.84074207 -18.29680531 -11.97507806 0 0 Z " fill="#FDFDFD" transform="translate(1634.3125,141.1875)"/>
<path d="M0 0 C13.32533661 11.77587887 18.83490336 27.62946827 20 45 C21.04598827 67.55559665 19.25122211 89.00519603 3.625 106.6875 C-8.40600178 117.28623966 -19.89234205 120.91184856 -35.93408203 120.17919922 C-47.57214854 119.16970491 -57.46187473 113.30708217 -65.375 104.97265625 C-80.38726707 86.74863012 -81.9165802 62.19622149 -79.77294922 39.60742188 C-77.71341699 23.81404244 -70.6660778 8.06084775 -58 -2 C-39.70383442 -13.1207152 -17.20567553 -13.87320785 0 0 Z " fill="#FDFDFD" transform="translate(822,144)"/>
<path d="M0 0 C12.54 0 25.08 0 38 0 C38 60.72 38 121.44 38 184 C25.46 184 12.92 184 0 184 C0 123.28 0 62.56 0 0 Z " fill="#010101" transform="translate(1085,107)"/>
<path d="M0 0 C7.66839146 -0.06903854 15.33569527 -0.12872505 23.00415039 -0.16479492 C25.61030745 -0.17983884 28.21643937 -0.20027895 30.82250977 -0.22631836 C34.57835105 -0.26289424 38.33385624 -0.27977095 42.08984375 -0.29296875 C43.24645004 -0.30845261 44.40305634 -0.32393646 45.5947113 -0.33988953 C54.7513862 -0.34177495 62.7869656 0.96118051 70 7 C75.80435669 14.96238675 75.69906265 23.5227078 75 33 C73.41016186 39.25400182 69.35757262 43.58473423 64 47 C56.5318573 50.2056249 49.22625147 50.4028405 41.2109375 50.29296875 C40.02650055 50.28872391 38.8420636 50.28447906 37.62173462 50.28010559 C33.87258287 50.26343533 30.12398679 50.22580413 26.375 50.1875 C23.81901823 50.17243814 21.26302796 50.15875237 18.70703125 50.14648438 C12.47097259 50.11613367 6.2361016 50.05738744 0 50 C0 33.5 0 17 0 0 Z " fill="#FAFAFA" transform="translate(1759,139)"/>
<path d="M0 0 C7.50767425 -0.06908903 15.01423313 -0.12876008 22.52197266 -0.16479492 C25.07279206 -0.17982636 27.62358585 -0.20025705 30.17431641 -0.22631836 C33.85325463 -0.26294972 37.53184935 -0.27978346 41.2109375 -0.29296875 C42.34050873 -0.30845261 43.47007996 -0.32393646 44.63388062 -0.33988953 C54.03766881 -0.34186185 62.54972544 0.69094489 69.59765625 7.390625 C74.78610404 13.34505534 75.36934071 20.50761476 75.27734375 28.08203125 C74.70667637 34.08609506 72.76120397 39.82974979 68.1875 43.9375 C61.54688305 48.23436979 55.41171958 50.13224754 47.56713867 50.11352539 C46.50641647 50.11344986 45.44569427 50.11337433 44.35282898 50.11329651 C42.65257317 50.10555458 42.65257317 50.10555458 40.91796875 50.09765625 C39.74865311 50.0962413 38.57933746 50.09482635 37.37458801 50.09336853 C33.64553249 50.08777793 29.91653733 50.07522709 26.1875 50.0625 C23.65690191 50.05748379 21.12630288 50.05292109 18.59570312 50.04882812 C12.39709353 50.03866314 6.19861423 50.01908571 0 50 C0 33.5 0 17 0 0 Z " fill="#FBFBFB" transform="translate(944,139)"/>
<path d="M0 0 C6.88875 -0.061875 13.7775 -0.12375 20.875 -0.1875 C23.0288623 -0.21481201 25.18272461 -0.24212402 27.40185547 -0.27026367 C29.14029381 -0.27903887 30.87873839 -0.28668035 32.6171875 -0.29296875 C33.4944751 -0.30831665 34.3717627 -0.32366455 35.27563477 -0.33947754 C43.06539109 -0.34271697 51.49308028 0.77857712 57.4375 6.25 C58.36369141 7.06210938 58.36369141 7.06210938 59.30859375 7.890625 C64.0793031 13.84023943 64.49820521 19.58113266 64.4375 26.9375 C64.45748047 27.79279297 64.47746094 28.64808594 64.49804688 29.52929688 C64.49275062 36.47268562 62.82503015 41.6481577 58.32421875 46.98828125 C49.73348117 53.93878254 41.38532983 55.16350406 30.6640625 55.09765625 C29.88377686 55.09664917 29.10349121 55.09564209 28.29956055 55.09460449 C25.40802524 55.08940541 22.51651101 55.07544433 19.625 55.0625 C13.14875 55.041875 6.6725 55.02125 0 55 C0 36.85 0 18.7 0 0 Z " fill="#FCFCFC" transform="translate(1400,139)"/>
</svg>
