<?xml version="1.0" encoding="UTF-8"?>
<svg version="1.1" xmlns="http://www.w3.org/2000/svg" width="207" height="153">
<path d="M0 0 C68.31 0 136.62 0 207 0 C207 50.49 207 100.98 207 153 C138.69 153 70.38 153 0 153 C0 102.51 0 52.02 0 0 Z " fill="#FCFCFC" transform="translate(0,0)"/>
<path d="M0 0 C9.9 0 19.8 0 30 0 C30 0.66 30 1.32 30 2 C30.99 2.33 31.98 2.66 33 3 C33 3.66 33 4.32 33 5 C35.64 5.33 38.28 5.66 41 6 C41 6.66 41 7.32 41 8 C43.97 8.495 43.97 8.495 47 9 C47 9.99 47 10.98 47 12 C47.99 12 48.98 12 50 12 C50 12.66 50 13.32 50 14 C57.59 14.33 65.18 14.66 73 15 C73 15.66 73 16.32 73 17 C74.918125 16.9690625 74.918125 16.9690625 76.875 16.9375 C80.75 16.875 80.75 16.875 83 18 C83 18.66 83 19.32 83 20 C84.65 20.33 86.3 20.66 88 21 C88 21.66 88 22.32 88 23 C89.65 23.33 91.3 23.66 93 24 C93 24.66 93 25.32 93 26 C93.99 26.33 94.98 26.66 96 27 C98.01430083 30.71055417 98.19402245 33.82851735 98 38 C95.69 38 93.38 38 91 38 C90.67 36.02 90.34 34.04 90 32 C89.34 32 88.68 32 88 32 C87.01 29.525 87.01 29.525 86 27 C83.69 26.67 81.38 26.34 79 26 C79 25.34 79 24.68 79 24 C73.72 24 68.44 24 63 24 C63.99 26.475 63.99 26.475 65 29 C65 29.99 65 30.98 65 32 C65.99 32.33 66.98 32.66 68 33 C69.4477922 35.89558441 70 37.74188938 70 41 C70.66 41 71.32 41 72 41 C72 42.32 72 43.64 72 45 C71.34 45 70.68 45 70 45 C70 45.66 70 46.32 70 47 C69.01 47 68.02 47 67 47 C67 46.34 67 45.68 67 45 C66.01 44.67 65.02 44.34 64 44 C63.67 42.02 63.34 40.04 63 38 C62.34 38 61.68 38 61 38 C58 32.25 58 32.25 58 30 C56.68 29.34 55.36 28.68 54 28 C54 26.68 54 25.36 54 24 C52.68 23.67 51.36 23.34 50 23 C50 22.34 50 21.68 50 21 C49.38125 20.938125 48.7625 20.87625 48.125 20.8125 C46 20 46 20 44.75 17.4375 C44.5025 16.633125 44.255 15.82875 44 15 C42.1128125 14.8453125 42.1128125 14.8453125 40.1875 14.6875 C37.49101243 14.35342189 36.23682932 14.17022107 34 12.5625 C33 11 33 11 33 9 C18.15 8.505 18.15 8.505 3 8 C3 8.99 3 9.98 3 11 C-0.3 11.33 -3.6 11.66 -7 12 C-7 12.66 -7 13.32 -7 14 C-8.98 14.33 -10.96 14.66 -13 15 C-13 15.66 -13 16.32 -13 17 C-14.175625 17.0928125 -14.175625 17.0928125 -15.375 17.1875 C-16.24125 17.455625 -17.1075 17.72375 -18 18 C-19.15521502 20.47130918 -19.15521502 20.47130918 -20 23 C-20.99 23.33 -21.98 23.66 -23 24 C-23 24.66 -23 25.32 -23 26 C-24.32 26.33 -25.64 26.66 -27 27 C-27.185625 28.11375 -27.185625 28.11375 -27.375 29.25 C-27.95486701 31.80141485 -28.73708739 33.7267573 -30 36 C-30.66 36 -31.32 36 -32 36 C-32.66 38.64 -33.32 41.28 -34 44 C-34.66 44 -35.32 44 -36 44 C-36.13277344 44.60328125 -36.26554687 45.2065625 -36.40234375 45.828125 C-36.57894531 46.62734375 -36.75554688 47.4265625 -36.9375 48.25 C-37.11152344 49.03890625 -37.28554688 49.8278125 -37.46484375 50.640625 C-37.947556 52.76878703 -38.46163178 54.88532842 -39 57 C-39.66 57 -40.32 57 -41 57 C-41 67.89 -41 78.78 -41 90 C-40.01 90 -39.02 90 -38 90 C-35.70387244 99.41002278 -35.70387244 99.41002278 -36 104 C-35.34 104 -34.68 104 -34 104 C-33.71125 104.969375 -33.4225 105.93875 -33.125 106.9375 C-32.35785318 110.10664203 -32.35785318 110.10664203 -30 111 C-30 111.66 -30 112.32 -30 113 C-24.72 113 -19.44 113 -14 113 C-14 112.34 -14 111.68 -14 111 C-9.38 110.67 -4.76 110.34 0 110 C0 109.34 0 108.68 0 108 C1.32 107.67 2.64 107.34 4 107 C4 106.34 4 105.68 4 105 C3.236875 104.896875 2.47375 104.79375 1.6875 104.6875 C-1.19807812 103.94932885 -2.26179817 103.37859197 -4 101 C-4 100.01 -4 99.02 -4 98 C-3.34 98 -2.68 98 -2 98 C-2 97.34 -2 96.68 -2 96 C-0.35 96 1.3 96 3 96 C3 96.66 3 97.32 3 98 C4.65 98.33 6.3 98.66 8 99 C8 99.66 8 100.32 8 101 C10.64 101.33 13.28 101.66 16 102 C16 102.66 16 103.32 16 104 C16.99 104 17.98 104 19 104 C18.88490339 105.41750563 18.75746342 106.83401169 18.625 108.25 C18.55539063 109.03890625 18.48578125 109.8278125 18.4140625 110.640625 C17.98492887 113.085877 17.21399362 114.84836903 16 117 C15.34 117 14.68 117 14 117 C13.34 120.63 12.68 124.26 12 128 C9.69 128.33 7.38 128.66 5 129 C5 126.69 5 124.38 5 122 C5.66 122 6.32 122 7 122 C7.33 120.02 7.66 118.04 8 116 C7.505 116.165 7.01 116.33 6.5 116.5 C2.96555911 117.20688818 -0.39690701 117.06005155 -4 117 C-4 117.66 -4 118.32 -4 119 C-12.415 119.495 -12.415 119.495 -21 120 C-20.34 122.64 -19.68 125.28 -19 128 C-17.35 128.33 -15.7 128.66 -14 129 C-14 129.66 -14 130.32 -14 131 C-12.68 131.33 -11.36 131.66 -10 132 C-10 132.66 -10 133.32 -10 134 C-8.35 134.33 -6.7 134.66 -5 135 C-5 135.66 -5 136.32 -5 137 C-1.04 137.33 2.92 137.66 7 138 C7 138.66 7 139.32 7 140 C12.28 140 17.56 140 23 140 C23 139.34 23 138.68 23 138 C26.96 137.67 30.92 137.34 35 137 C35.33 136.01 35.66 135.02 36 134 C36.66 134 37.32 134 38 134 C38 133.34 38 132.68 38 132 C40.31 131.67 42.62 131.34 45 131 C45.33 130.01 45.66 129.02 46 128 C46.99 128 47.98 128 49 128 C49.2475 127.2575 49.495 126.515 49.75 125.75 C51.12706316 122.72046105 52.59176793 121.27061881 55 119 C57.57640391 116.15239568 59.76545819 113.70362542 61 110 C61.66 110 62.32 110 63 110 C63.0825 109.113125 63.165 108.22625 63.25 107.3125 C64.09984348 103.55902463 65.34027809 101.74031954 68 99 C68.66 99 69.32 99 70 99 C70 99.66 70 100.32 70 101 C70.66 101 71.32 101 72 101 C72 102.98 72 104.96 72 107 C71.34 107 70.68 107 70 107 C69.89042969 107.63808594 69.78085938 108.27617188 69.66796875 108.93359375 C69.50941406 109.75988281 69.35085937 110.58617188 69.1875 111.4375 C69.03667969 112.26121094 68.88585937 113.08492188 68.73046875 113.93359375 C68.48941406 114.61550781 68.24835938 115.29742187 68 116 C67.01 116.33 66.02 116.66 65 117 C63.78130071 119.50447516 63.78130071 119.50447516 63 122 C62.34 122 61.68 122 61 122 C60.87625 122.598125 60.7525 123.19625 60.625 123.8125 C60 126 60 126 58 129 C57.01 129 56.02 129 55 129 C54.67 129.99 54.34 130.98 54 132 C53.01 132 52.02 132 51 132 C50.67 132.99 50.34 133.98 50 135 C49.01 135 48.02 135 47 135 C46.67 135.99 46.34 136.98 46 138 C45.34 138 44.68 138 44 138 C44 138.66 44 139.32 44 140 C42.02 140.33 40.04 140.66 38 141 C38 141.66 38 142.32 38 143 C35.36 143.33 32.72 143.66 30 144 C30 144.66 30 145.32 30 146 C26.85426431 146.92502726 24.02743957 147.12875859 20.75390625 147.1328125 C19.75166016 147.13410156 18.74941406 147.13539063 17.71679688 147.13671875 C16.67587891 147.13285156 15.63496094 147.12898437 14.5625 147.125 C13.52544922 147.12886719 12.48839844 147.13273438 11.41992188 147.13671875 C9.91461914 147.13478516 9.91461914 147.13478516 8.37890625 147.1328125 C7.4669751 147.13168457 6.55504395 147.13055664 5.61547852 147.12939453 C2.98607307 146.999311 0.56390002 146.58261251 -2 146 C-2 145.34 -2 144.68 -2 144 C-4.64 143.67 -7.28 143.34 -10 143 C-10 142.01 -10 141.02 -10 140 C-11.32 140 -12.64 140 -14 140 C-14 139.34 -14 138.68 -14 138 C-15.2065625 137.814375 -15.2065625 137.814375 -16.4375 137.625 C-17.283125 137.41875 -18.12875 137.2125 -19 137 C-19.33 136.34 -19.66 135.68 -20 135 C-20.99 134.67 -21.98 134.34 -23 134 C-23.66666667 132.33333333 -24.33333333 130.66666667 -25 129 C-25.99 128.67 -26.98 128.34 -28 128 C-28.66666667 126.33333333 -29.33333333 124.66666667 -30 123 C-30.99 122.67 -31.98 122.34 -33 122 C-33 121.34 -33 120.68 -33 120 C-33.94101562 120.01160156 -34.88203125 120.02320312 -35.8515625 120.03515625 C-37.09679687 120.04417969 -38.34203125 120.05320312 -39.625 120.0625 C-41.46964844 120.07990234 -41.46964844 120.07990234 -43.3515625 120.09765625 C-46.67723791 120.00863924 -49.74047588 119.63686087 -53 119 C-53 118.34 -53 117.68 -53 117 C-55.31 116.67 -57.62 116.34 -60 116 C-60.2475 115.195625 -60.495 114.39125 -60.75 113.5625 C-61.72238859 110.828919 -61.72238859 110.828919 -64.125 110.1875 C-65.053125 110.0946875 -65.053125 110.0946875 -66 110 C-66.495 107.03 -66.495 107.03 -67 104 C-67.66 104 -68.32 104 -69 104 C-69 100.04 -69 96.08 -69 92 C-68.34 92 -67.68 92 -67 92 C-66.855625 90.741875 -66.71125 89.48375 -66.5625 88.1875 C-66.26251314 85.57332877 -65.84186703 83.52560108 -65 81 C-64.01 81 -63.02 81 -62 81 C-61.87625 80.443125 -61.7525 79.88625 -61.625 79.3125 C-60.50519354 75.16921611 -59.43307975 71.7464638 -56 69 C-54.515 68.505 -54.515 68.505 -53 68 C-52.71125 67.175 -52.4225 66.35 -52.125 65.5 C-51.75375 64.675 -51.3825 63.85 -51 63 C-48.375 62.1875 -48.375 62.1875 -46 62 C-46 60.02 -46 58.04 -46 56 C-45.34 56 -44.68 56 -44 56 C-43.95101562 55.20335937 -43.90203125 54.40671875 -43.8515625 53.5859375 C-43.10896309 43.06151142 -43.10896309 43.06151142 -41 38 C-40.34 38 -39.68 38 -39 38 C-38.690625 37.05125 -38.38125 36.1025 -38.0625 35.125 C-37 32 -37 32 -36 30 C-35.34 30 -34.68 30 -34 30 C-33.89429688 29.42378906 -33.78859375 28.84757812 -33.6796875 28.25390625 C-32.8986171 25.66380499 -31.77751302 24.07096831 -30.125 21.9375 C-29.61195312 21.26589844 -29.09890625 20.59429688 -28.5703125 19.90234375 C-24.7223796 15.2407932 -24.7223796 15.2407932 -21 14 C-20.319375 12.7625 -20.319375 12.7625 -19.625 11.5 C-18 9 -18 9 -15.3125 8.1875 C-14.549375 8.125625 -13.78625 8.06375 -13 8 C-13 7.34 -13 6.68 -13 6 C-10.36 5.67 -7.72 5.34 -5 5 C-5 4.34 -5 3.68 -5 3 C-4.360625 2.87625 -3.72125 2.7525 -3.0625 2.625 C-2.381875 2.41875 -1.70125 2.2125 -1 2 C-0.67 1.34 -0.34 0.68 0 0 Z " fill="#392C35" transform="translate(79,0)"/>
<path d="M0 0 C4.95 0 9.9 0 15 0 C15 0.66 15 1.32 15 2 C16.32 2.33 17.64 2.66 19 3 C19 3.66 19 4.32 19 5 C21.31 5.33 23.62 5.66 26 6 C26.2475 6.804375 26.495 7.60875 26.75 8.4375 C27.72238859 11.171081 27.72238859 11.171081 30.125 11.8125 C30.74375 11.874375 31.3625 11.93625 32 12 C32 12.66 32 13.32 32 14 C33.32 14 34.64 14 36 14 C36.66 12.35 37.32 10.7 38 9 C41.465 8.505 41.465 8.505 45 8 C45 7.34 45 6.68 45 6 C47.97 5.505 47.97 5.505 51 5 C51 4.34 51 3.68 51 3 C54.51737321 1.82754226 57.3575132 1.86733715 61.0625 1.875 C62.93615234 1.87113281 62.93615234 1.87113281 64.84765625 1.8671875 C68 2 68 2 70 3 C70 3.66 70 4.32 70 5 C71.32 5.33 72.64 5.66 74 6 C74.05422947 7.4370809 74.09289723 8.87475462 74.125 10.3125 C74.14820313 11.11300781 74.17140625 11.91351563 74.1953125 12.73828125 C74 15 74 15 72 18 C71.01 18 70.02 18 69 18 C68.505 19.485 68.505 19.485 68 21 C67.01 21 66.02 21 65 21 C65 21.66 65 22.32 65 23 C63.02 23.33 61.04 23.66 59 24 C59 24.66 59 25.32 59 26 C56.69 26.33 54.38 26.66 52 27 C52 27.66 52 28.32 52 29 C50.9375 30.5625 50.9375 30.5625 49 32 C45.3125 32.6875 45.3125 32.6875 42 33 C42 33.66 42 34.32 42 35 C40.02 35.33 38.04 35.66 36 36 C36 36.66 36 37.32 36 38 C34.68 38 33.36 38 32 38 C32 38.99 32 39.98 32 41 C29.03 41.495 29.03 41.495 26 42 C26 42.66 26 43.32 26 44 C25.401875 44.103125 24.80375 44.20625 24.1875 44.3125 C21.92027543 44.83254644 21.92027543 44.83254644 20.5 46.5625 C19 48 19 48 15 48 C15 48.66 15 49.32 15 50 C12.03 50.495 12.03 50.495 9 51 C9 51.66 9 52.32 9 53 C8.360625 53.12375 7.72125 53.2475 7.0625 53.375 C6.381875 53.58125 5.70125 53.7875 5 54 C4.67 54.66 4.34 55.32 4 56 C2.35 56 0.7 56 -1 56 C-1.33 55.34 -1.66 54.68 -2 54 C-4.02463255 53.34786708 -4.02463255 53.34786708 -6 53 C-6 52.34 -6 51.68 -6 51 C-9.465 50.505 -9.465 50.505 -13 50 C-13 49.34 -13 48.68 -13 48 C-14.98 47.67 -16.96 47.34 -19 47 C-19 46.01 -19 45.02 -19 44 C-20.32 44 -21.64 44 -23 44 C-23 43.34 -23 42.68 -23 42 C-24.32 41.67 -25.64 41.34 -27 41 C-27 39.02 -27 37.04 -27 35 C-26.34 35 -25.68 35 -25 35 C-25 34.34 -25 33.68 -25 33 C-10.15 32.505 -10.15 32.505 5 32 C5 31.34 5 30.68 5 30 C5.99 29.67 6.98 29.34 8 29 C8.41870553 26.66928121 8.41870553 26.66928121 8 24 C5.5609294 21.79857668 5.5609294 21.79857668 3 20 C3 19.34 3 18.68 3 18 C2.34 18 1.68 18 1 18 C-2 12.375 -2 12.375 -2 9 C-2.66 9 -3.32 9 -4 9 C-4 7.02 -4 5.04 -4 3 C-2.68 2.67 -1.36 2.34 0 2 C0 1.34 0 0.68 0 0 Z " fill="#3D3039" transform="translate(111,48)"/>
<path d="M0 0 C1.45823212 -0.0270043 2.91660675 -0.04639787 4.375 -0.0625 C5.18710938 -0.07410156 5.99921875 -0.08570313 6.8359375 -0.09765625 C9 0 9 0 11 1 C11 1.66 11 2.32 11 3 C12.32 3.33 13.64 3.66 15 4 C15 4.66 15 5.32 15 6 C17.475 6.495 17.475 6.495 20 7 C20 7.66 20 8.32 20 9 C20.99 9 21.98 9 23 9 C23 9.99 23 10.98 23 12 C25.97 12 28.94 12 32 12 C32.33 11.34 32.66 10.68 33 10 C36.0625 9.375 36.0625 9.375 39 9 C39 8.34 39 7.68 39 7 C42.465 6.505 42.465 6.505 46 6 C46 5.34 46 4.68 46 4 C46.639375 3.87625 47.27875 3.7525 47.9375 3.625 C48.618125 3.41875 49.29875 3.2125 50 3 C50.33 2.34 50.66 1.68 51 1 C54.63 1 58.26 1 62 1 C61.67 2.65 61.34 4.3 61 6 C59.35 6.33 57.7 6.66 56 7 C56 7.66 56 8.32 56 9 C54.02 9.33 52.04 9.66 50 10 C50 10.66 50 11.32 50 12 C48.68 12 47.36 12 46 12 C46 12.99 46 13.98 46 15 C43.69 15.33 41.38 15.66 39 16 C39 16.66 39 17.32 39 18 C36.69 18.33 34.38 18.66 32 19 C32 19.66 32 20.32 32 21 C31.01 21.33 30.02 21.66 29 22 C28.67 22.66 28.34 23.32 28 24 C25.4375 24.625 25.4375 24.625 23 25 C23 25.66 23 26.32 23 27 C20.03 27.495 20.03 27.495 17 28 C17 28.66 17 29.32 17 30 C15.02 30.33 13.04 30.66 11 31 C11 31.66 11 32.32 11 33 C8.03 33.495 8.03 33.495 5 34 C5 34.66 5 35.32 5 36 C2.525 36.495 2.525 36.495 0 37 C0 37.66 0 38.32 0 39 C-1.65 39 -3.3 39 -5 39 C-5 38.34 -5 37.68 -5 37 C-7.31 36.67 -9.62 36.34 -12 36 C-12 35.01 -12 34.02 -12 33 C-8.04 33 -4.08 33 0 33 C0.33 32.01 0.66 31.02 1 30 C1.99 30 2.98 30 4 30 C4.33 29.01 4.66 28.02 5 27 C6.32 27 7.64 27 9 27 C9.33 26.01 9.66 25.02 10 24 C10.99 24 11.98 24 13 24 C13.33 21.36 13.66 18.72 14 16 C12.68 15.67 11.36 15.34 10 15 C9.67 13.35 9.34 11.7 9 10 C8.1646875 9.938125 8.1646875 9.938125 7.3125 9.875 C3.7482502 8.52636494 2.183974 6.03329722 0 3 C0 2.01 0 1.02 0 0 Z " fill="#EEEDEE" transform="translate(115,56)"/>
<path d="M0 0 C0.99 0 1.98 0 3 0 C3.33 5.94 3.66 11.88 4 18 C4.66 18 5.32 18 6 18 C6.50314563 20.77029586 7.00263838 23.5411652 7.5 26.3125 C7.64308594 27.09818359 7.78617188 27.88386719 7.93359375 28.69335938 C8.06894531 29.45068359 8.20429687 30.20800781 8.34375 30.98828125 C8.46943359 31.68477783 8.59511719 32.38127441 8.72460938 33.09887695 C9 35 9 35 9 38 C9.66 38 10.32 38 11 38 C11 38.99 11 39.98 11 41 C8.69 41 6.38 41 4 41 C4 40.34 4 39.68 4 39 C0.7 38.67 -2.6 38.34 -6 38 C-6 37.34 -6 36.68 -6 36 C-6.9590625 35.8453125 -6.9590625 35.8453125 -7.9375 35.6875 C-8.618125 35.460625 -9.29875 35.23375 -10 35 C-11.14693757 31.55918729 -11.16819738 28.81253288 -11.1875 25.1875 C-11.20167969 23.98480469 -11.21585938 22.78210938 -11.23046875 21.54296875 C-10.92110788 16.7872008 -10.09008731 13.29447868 -7 9.625 C-5 8 -5 8 -3 8 C-2.690625 7.05125 -2.38125 6.1025 -2.0625 5.125 C-1 2 -1 2 0 0 Z " fill="#F5F5F5" transform="translate(29,72)"/>
<path d="M0 0 C0.33 0 0.66 0 1 0 C0.67 12.21 0.34 24.42 0 37 C-0.66 37 -1.32 37 -2 37 C-2 26.11 -2 15.22 -2 4 C-1.34 4 -0.68 4 0 4 C0 2.68 0 1.36 0 0 Z " fill="#B0ABAF" transform="translate(40,53)"/>
<path d="M0 0 C9.9 0 19.8 0 30 0 C30 0.66 30 1.32 30 2 C30.66 2.33 31.32 2.66 32 3 C21.44 2.67 10.88 2.34 0 2 C0 1.34 0 0.68 0 0 Z " fill="#81797F" transform="translate(79,0)"/>
<path d="M0 0 C0.33 0 0.66 0 1 0 C0.835 0.99 0.67 1.98 0.5 3 C-0.05173845 7.39026164 -0.11293753 11.76861398 -0.125 16.1875 C-0.12951172 16.87650391 -0.13402344 17.56550781 -0.13867188 18.27539062 C-0.12792483 21.97595749 0.11979712 25.40234538 1 29 C0.34 29 -0.32 29 -1 29 C-1.33 27.02 -1.66 25.04 -2 23 C-2.66 23 -3.32 23 -4 23 C-4 19.04 -4 15.08 -4 11 C-3.34 11 -2.68 11 -2 11 C-1.7834375 9.1128125 -1.7834375 9.1128125 -1.5625 7.1875 C-1.26251314 4.57332877 -0.84186703 2.52560108 0 0 Z " fill="#675E65" transform="translate(14,81)"/>
<path d="M0 0 C3.3 0 6.6 0 10 0 C10 0.66 10 1.32 10 2 C15.28 2 20.56 2 26 2 C26 1.34 26 0.68 26 0 C27.98 0 29.96 0 32 0 C32 0.66 32 1.32 32 2 C28.85426431 2.92502726 26.02743957 3.12875859 22.75390625 3.1328125 C21.75166016 3.13410156 20.74941406 3.13539063 19.71679688 3.13671875 C18.67587891 3.13285156 17.63496094 3.12898437 16.5625 3.125 C15.00692383 3.13080078 15.00692383 3.13080078 13.41992188 3.13671875 C11.91461914 3.13478516 11.91461914 3.13478516 10.37890625 3.1328125 C9.4669751 3.13168457 8.55504395 3.13055664 7.61547852 3.12939453 C4.98607307 2.999311 2.56390002 2.58261251 0 2 C0 1.34 0 0.68 0 0 Z " fill="#6C6369" transform="translate(77,144)"/>
<path d="M0 0 C5.28 0 10.56 0 16 0 C16 0.66 16 1.32 16 2 C16.99 2.33 17.98 2.66 19 3 C14.05 3 9.1 3 4 3 C4 4.65 4 6.3 4 8 C3.34 8 2.68 8 2 8 C0.74335022 5.09399739 0 3.20395416 0 0 Z " fill="#D0CDCF" transform="translate(142,24)"/>
<path d="M0 0 C5.61 0.33 11.22 0.66 17 1 C17.33 1.99 17.66 2.98 18 4 C11.8894576 4.11269443 6.04829486 3.89604368 0 3 C0 2.01 0 1.02 0 0 Z " fill="#C2BEC1" transform="translate(29,119)"/>
<path d="M0 0 C4.45831982 -0.02891546 8.91661569 -0.04676981 13.375 -0.0625 C14.64601562 -0.07087891 15.91703125 -0.07925781 17.2265625 -0.08789062 C19.04414063 -0.09272461 19.04414063 -0.09272461 20.8984375 -0.09765625 C22.57945557 -0.10551147 22.57945557 -0.10551147 24.29443359 -0.11352539 C27 0 27 0 29 1 C29 1.66 29 2.32 29 3 C27.35 3 25.7 3 24 3 C24 2.34 24 1.68 24 1 C16.08 1 8.16 1 0 1 C0 0.67 0 0.34 0 0 Z " fill="#40343C" transform="translate(133,17)"/>
<path d="M0 0 C0.33 0 0.66 0 1 0 C0.67 2.64 0.34 5.28 0 8 C-2.31 8.33 -4.62 8.66 -7 9 C-7 6.69 -7 4.38 -7 2 C-6.34 2 -5.68 2 -5 2 C-5 3.98 -5 5.96 -5 8 C-4.34 8 -3.68 8 -3 8 C-2.67 6.35 -2.34 4.7 -2 3 C-1.34 3 -0.68 3 0 3 C0 2.01 0 1.02 0 0 Z " fill="#594E56" transform="translate(91,120)"/>
<path d="M0 0 C4.62 0 9.24 0 14 0 C14 0.66 14 1.32 14 2 C10.04 2 6.08 2 2 2 C1.67 2.99 1.34 3.98 1 5 C0.67 3.35 0.34 1.7 0 0 Z " fill="#52474F" transform="translate(101,87)"/>
<path d="M0 0 C2.97 0 5.94 0 9 0 C9 0.99 9 1.98 9 3 C6.69 3 4.38 3 2 3 C2 3.66 2 4.32 2 5 C1.34 5 0.68 5 0 5 C0 3.35 0 1.7 0 0 Z " fill="#574C54" transform="translate(140,21)"/>
<path d="M0 0 C1.32 0 2.64 0 4 0 C4 0.66 4 1.32 4 2 C1.65147472 3.17426264 0.26225935 3.11508173 -2.3515625 3.09765625 C-3.20234375 3.09443359 -4.053125 3.09121094 -4.9296875 3.08789062 C-5.81914063 3.07951172 -6.70859375 3.07113281 -7.625 3.0625 C-8.5221875 3.05798828 -9.419375 3.05347656 -10.34375 3.04882812 C-12.56256648 3.03702591 -14.78125018 3.02056155 -17 3 C-17 2.67 -17 2.34 -17 2 C-11.39 2 -5.78 2 0 2 C0 1.34 0 0.68 0 0 Z " fill="#E1DFE0" transform="translate(112,78)"/>
<path d="M0 0 C1.32 0 2.64 0 4 0 C4 0.66 4 1.32 4 2 C2.35 2.33 0.7 2.66 -1 3 C-1 3.66 -1 4.32 -1 5 C-2.32 5.33 -3.64 5.66 -5 6 C-5 6.66 -5 7.32 -5 8 C-5.66 8 -6.32 8 -7 8 C-6.3125 5.5625 -6.3125 5.5625 -5 3 C-2.375 2.1875 -2.375 2.1875 0 2 C0 1.34 0 0.68 0 0 Z " fill="#797177" transform="translate(66,6)"/>
<path d="M0 0 C1.98 0 3.96 0 6 0 C6 0.66 6 1.32 6 2 C2.39006828 3.13480527 -0.9842327 3.10015767 -4.75 3.0625 C-5.92046875 3.05347656 -7.0909375 3.04445312 -8.296875 3.03515625 C-9.18890625 3.02355469 -10.0809375 3.01195312 -11 3 C-11 2.67 -11 2.34 -11 2 C-7.37 2 -3.74 2 0 2 C0 1.34 0 0.68 0 0 Z " fill="#5D525A" transform="translate(103,144)"/>
<path d="M0 0 C3.3 0.33 6.6 0.66 10 1 C10 1.99 10 2.98 10 4 C7.36 3.67 4.72 3.34 2 3 C2 2.34 2 1.68 2 1 C1.34 0.67 0.68 0.34 0 0 Z " fill="#C0BDBF" transform="translate(72,134)"/>
<path d="M0 0 C0.33 1.32 0.66 2.64 1 4 C-0.58323688 4.027193 -2.16661062 4.04648306 -3.75 4.0625 C-5.07257812 4.07990234 -5.07257812 4.07990234 -6.421875 4.09765625 C-8.7818838 4.00826198 -10.74498524 3.66912821 -13 3 C-13 2.34 -13 1.68 -13 1 C-11.02 1 -9.04 1 -7 1 C-7 1.66 -7 2.32 -7 3 C-4.69 3 -2.38 3 0 3 C0 2.01 0 1.02 0 0 Z " fill="#7E767C" transform="translate(40,110)"/>
<path d="M0 0 C0.66 0 1.32 0 2 0 C1.67 0.99 1.34 1.98 1 3 C-0.32 3 -1.64 3 -3 3 C-3 3.66 -3 4.32 -3 5 C-4.65 5.33 -6.3 5.66 -8 6 C-8 6.66 -8 7.32 -8 8 C-8.66 8 -9.32 8 -10 8 C-9.67 7.01 -9.34 6.02 -9 5 C-8.34 5 -7.68 5 -7 5 C-7 4.34 -7 3.68 -7 3 C-3.535 2.505 -3.535 2.505 0 2 C0 1.34 0 0.68 0 0 Z " fill="#B5B1B4" transform="translate(170,72)"/>
<path d="M0 0 C2.97 0 5.94 0 9 0 C9 0.33 9 0.66 9 1 C6.69 1 4.38 1 2 1 C2 1.66 2 2.32 2 3 C2.99 3.33 3.98 3.66 5 4 C4.67 4.99 4.34 5.98 4 7 C2 5.1875 2 5.1875 0 3 C0 2.01 0 1.02 0 0 Z " fill="#A8A3A7" transform="translate(115,56)"/>
<path d="M0 0 C2.31 0 4.62 0 7 0 C7 0.66 7 1.32 7 2 C3.0186217 3.3271261 -0.85045227 3.06915913 -5 3 C-5 2.67 -5 2.34 -5 2 C-3.35 2 -1.7 2 0 2 C0 1.34 0 0.68 0 0 Z " fill="#C9C6C8" transform="translate(107,135)"/>
<path d="M0 0 C0.33 0 0.66 0 1 0 C1 2.31 1 4.62 1 7 C1.66 7 2.32 7 3 7 C3 8.65 3 10.3 3 12 C2.01 12 1.02 12 0 12 C0 8.04 0 4.08 0 0 Z " fill="#A49EA2" transform="translate(32,83)"/>
<path d="M0 0 C1.32 0 2.64 0 4 0 C4 0.66 4 1.32 4 2 C4.9590625 2.1546875 4.9590625 2.1546875 5.9375 2.3125 C6.618125 2.539375 7.29875 2.76625 8 3 C8.33 3.99 8.66 4.98 9 6 C7.35 5.67 5.7 5.34 4 5 C4 4.34 4 3.68 4 3 C2.68 2.67 1.36 2.34 0 2 C0 1.34 0 0.68 0 0 Z " fill="#62585F" transform="translate(126,57)"/>
<path d="M0 0 C0.33 0 0.66 0 1 0 C0.67 3.63 0.34 7.26 0 11 C-0.66 11 -1.32 11 -2 11 C-2 8.36 -2 5.72 -2 3 C-1.34 3 -0.68 3 0 3 C0 2.01 0 1.02 0 0 Z " fill="#C5C1C4" transform="translate(35,45)"/>
<path d="M0 0 C2.64 0 5.28 0 8 0 C8 0.66 8 1.32 8 2 C8.66 2.33 9.32 2.66 10 3 C6.7 2.67 3.4 2.34 0 2 C0 1.34 0 0.68 0 0 Z " fill="#A09A9F" transform="translate(101,0)"/>
<path d="M0 0 C0.33 0 0.66 0 1 0 C1 2.64 1 5.28 1 8 C0.01 8 -0.98 8 -2 8 C-2 6.02 -2 4.04 -2 2 C-1.34 2 -0.68 2 0 2 C0 1.34 0 0.68 0 0 Z " fill="#6B6168" transform="translate(17,93)"/>
<path d="M0 0 C0 0.99 0 1.98 0 3 C-2.64 3.33 -5.28 3.66 -8 4 C-7.34 3.67 -6.68 3.34 -6 3 C-6 2.34 -6 1.68 -6 1 C-3.92446352 0.4465236 -2.15634036 0 0 0 Z " fill="#C8C5C7" transform="translate(160,62)"/>
<path d="M0 0 C1 3 1 3 0 6 C-2.0625 7.1875 -2.0625 7.1875 -4 8 C-3.40138258 5.64828869 -2.73075648 3.3140622 -2 1 C-1.34 0.67 -0.68 0.34 0 0 Z " fill="#C2BEC1" transform="translate(54,26)"/>
<path d="M0 0 C0.99 0 1.98 0 3 0 C3 0.66 3 1.32 3 2 C4.32 2.33 5.64 2.66 7 3 C7 3.99 7 4.98 7 6 C6.01 5.67 5.02 5.34 4 5 C4 4.34 4 3.68 4 3 C2.68 2.67 1.36 2.34 0 2 C0 1.34 0 0.68 0 0 Z " fill="#6A6067" transform="translate(125,18)"/>
<path d="M0 0 C2.31 0 4.62 0 7 0 C7 0.66 7 1.32 7 2 C2.545 2.495 2.545 2.495 -2 3 C-1.34 2.67 -0.68 2.34 0 2 C0 1.34 0 0.68 0 0 Z " fill="#938C90" transform="translate(75,9)"/>
<path d="M0 0 C0 0.99 0 1.98 0 3 C-0.66 3 -1.32 3 -2 3 C-2 2.34 -2 1.68 -2 1 C-2.66 1 -3.32 1 -4 1 C-4.33 1.99 -4.66 2.98 -5 4 C-5.66 4 -6.32 4 -7 4 C-7 3.01 -7 2.02 -7 1 C-4.53721199 -0.231394 -2.7204945 -0.07159196 0 0 Z " fill="#C4C0C3" transform="translate(151,98)"/>
<path d="M0 0 C0.66 0 1.32 0 2 0 C2.25 2.3125 2.25 2.3125 2 5 C0 6.8125 0 6.8125 -2 8 C-1.34 5.36 -0.68 2.72 0 0 Z " fill="#D1CED0" transform="translate(20,84)"/>
<path d="M0 0 C-0.66 0 -1.32 0 -2 0 C-2 0.66 -2 1.32 -2 2 C-4.64 2.33 -7.28 2.66 -10 3 C-8.68 2.67 -7.36 2.34 -6 2 C-6 1.34 -6 0.68 -6 0 C-3.50907189 -1.24546405 -2.58919267 -0.7767578 0 0 Z " fill="#ADA7AB" transform="translate(153,84)"/>
<path d="M0 0 C0.33 0.99 0.66 1.98 1 3 C0.34 3 -0.32 3 -1 3 C-1 3.66 -1 4.32 -1 5 C-2.65 5 -4.3 5 -6 5 C-6 4.34 -6 3.68 -6 3 C-4.02 2.67 -2.04 2.34 0 2 C0 1.34 0 0.68 0 0 Z " fill="#574C54" transform="translate(138,81)"/>
<path d="M0 0 C6.75 -0.125 6.75 -0.125 9 1 C9 1.66 9 2.32 9 3 C7.35 3 5.7 3 4 3 C4 2.34 4 1.68 4 1 C2.68 0.67 1.36 0.34 0 0 Z " fill="#6B6268" transform="translate(153,17)"/>
</svg>
