<?xml version="1.0" encoding="UTF-8"?>
<svg version="1.1" xmlns="http://www.w3.org/2000/svg" width="335" height="75">
<path d="M0 0 C110.55 0 221.1 0 335 0 C335 24.75 335 49.5 335 75 C224.45 75 113.9 75 0 75 C0 50.25 0 25.5 0 0 Z " fill="#F8F8F7" transform="translate(0,0)"/>
<path d="M0 0 C12.21 0 24.42 0 37 0 C37 10.125 37 10.125 36 15 C33.69 15 31.38 15 29 15 C29 11.7 29 8.4 29 5 C24.71 5 20.42 5 16 5 C15.34 10.28 14.68 15.56 14 21 C15.835625 20.938125 17.67125 20.87625 19.5625 20.8125 C24.9143776 20.8125 28.38949883 21.29383627 33 24 C36.26494708 28.89742062 35.66895392 34.28220441 35 40 C33.12030765 44.58120369 28.95534551 47.06055255 24.6171875 49.17749023 C18.93969825 50.96176834 12.88659227 50.39990343 7 50.25 C5.63934927 50.22989985 4.2786698 50.21165529 2.91796875 50.1953125 C-0.388763 50.1484085 -3.69400416 50.08277725 -7 50 C-7 48.35 -7 46.7 -7 45 C-4.03 44.505 -4.03 44.505 -1 44 C-0.83564453 42.29070313 -0.83564453 42.29070313 -0.66796875 40.546875 C0.51347033 28.63212537 2.13086948 16.82536575 4 5 C2.68 4.67 1.36 4.34 0 4 C0 2.68 0 1.36 0 0 Z " fill="#1E1D1B" transform="translate(22,7)"/>
<path d="M0 0 C0.33 0.99 0.66 1.98 1 3 C1.61875 2.505 2.2375 2.01 2.875 1.5 C7.14845694 -0.55125933 11.32517089 -0.8081908 16 0 C19.03833614 2.30348275 20.7362372 5.23929766 21.30078125 9.0078125 C21.34617793 17.20947995 19.63212241 25.7750226 14 32 C7.64470838 36.2457063 1.44989436 36.5013013 -6 36 C-5.979375 37.2375 -5.95875 38.475 -5.9375 39.75 C-5.93233319 42.6640825 -6.06984442 45.20953327 -7 48 C-5.35 48 -3.7 48 -2 48 C-1.67 49.65 -1.34 51.3 -1 53 C-8.26 53 -15.52 53 -23 53 C-22.67 51.35 -22.34 49.7 -22 48 C-19.525 47.505 -19.525 47.505 -17 47 C-16.93941406 46.16855469 -16.87882812 45.33710937 -16.81640625 44.48046875 C-16.73261719 43.39378906 -16.64882812 42.30710938 -16.5625 41.1875 C-16.48128906 40.10855469 -16.40007812 39.02960937 -16.31640625 37.91796875 C-16 35 -16 35 -15 32 C-14.79781705 30.34901471 -14.63590909 28.6929135 -14.5 27.03515625 C-14.4175 26.07029297 -14.335 25.10542969 -14.25 24.11132812 C-14.12625 22.6021582 -14.12625 22.6021582 -14 21.0625 C-13.83631402 19.07397114 -13.66975752 17.08567599 -13.5 15.09765625 C-13.4278125 14.21601807 -13.355625 13.33437988 -13.28125 12.42602539 C-13.02369719 10.20440888 -12.59977082 8.15136544 -12 6 C-13.32 6 -14.64 6 -16 6 C-16 4.68 -16 3.36 -16 2 C-10.51324804 0.13216954 -5.77807024 -0.2358396 0 0 Z " fill="#1E1D19" transform="translate(124,20)"/>
<path d="M0 0 C1.07314453 0.00322266 2.14628906 0.00644531 3.25195312 0.00976562 C4.37150391 0.01814453 5.49105469 0.02652344 6.64453125 0.03515625 C8.34125977 0.04192383 8.34125977 0.04192383 10.07226562 0.04882812 C12.86721001 0.06062114 15.66212724 0.07855668 18.45703125 0.09765625 C18.12703125 4.71765625 17.79703125 9.33765625 17.45703125 14.09765625 C16.79703125 14.09765625 16.13703125 14.09765625 15.45703125 14.09765625 C15.45703125 19.37765625 15.45703125 24.65765625 15.45703125 30.09765625 C17.43703125 30.42765625 19.41703125 30.75765625 21.45703125 31.09765625 C21.26953125 32.97265625 21.26953125 32.97265625 20.45703125 35.09765625 C16.30636371 37.69182346 11.20623194 37.85965487 6.45703125 37.09765625 C3.89453125 35.09765625 3.89453125 35.09765625 2.45703125 33.09765625 C0.47703125 33.75765625 -1.50296875 34.41765625 -3.54296875 35.09765625 C-3.54296875 35.75765625 -3.54296875 36.41765625 -3.54296875 37.09765625 C-12.18259053 38.00355834 -12.18259053 38.00355834 -15.28515625 35.9375 C-17.91986526 32.88965615 -19.26577158 30.07081575 -19.54296875 26.09765625 C-19.60484375 25.45054688 -19.66671875 24.8034375 -19.73046875 24.13671875 C-20.12204011 17.16185394 -18.5578223 10.48251455 -13.82421875 5.16796875 C-9.33770532 1.19474287 -6.04299268 -0.03197351 0 0 Z " fill="#232320" transform="translate(213.54296875,19.90234375)"/>
<path d="M0 0 C1.73443359 0.04060547 1.73443359 0.04060547 3.50390625 0.08203125 C6.33790445 0.15229567 9.16794764 0.25061932 12 0.375 C11.60167917 7.34561458 10.98845954 13.66394905 9 20.375 C8.55070884 24.03422692 8.25271085 27.69739204 8 31.375 C10.31 31.375 12.62 31.375 15 31.375 C15 33.025 15 34.675 15 36.375 C11.83800849 37.42899717 9.38539814 37.60945913 6.0625 37.6875 C5.02222656 37.72488281 3.98195313 37.76226562 2.91015625 37.80078125 C-0.64802891 37.28018772 -1.76282667 36.10812501 -4 33.375 C-4.969375 34.035 -5.93875 34.695 -6.9375 35.375 C-11.23313829 37.78857364 -15.1705967 38.62974217 -20 37.375 C-24.15624182 33.98214953 -24.81802361 31.93317284 -25.4375 26.62890625 C-25.79036599 19.29588281 -25.73962277 12.31579955 -21 6.375 C-14.73497561 -0.26417451 -8.76443202 -0.3915382 0 0 Z " fill="#282825" transform="translate(88,19.625)"/>
<path d="M0 0 C-0.33 4.95 -0.66 9.9 -1 15 C2.3 15 5.6 15 9 15 C9.03738281 14.24074219 9.07476562 13.48148438 9.11328125 12.69921875 C9.17902344 11.70535156 9.24476563 10.71148437 9.3125 9.6875 C9.37050781 8.70136719 9.42851562 7.71523438 9.48828125 6.69921875 C10 4 10 4 11.28125 2.15625 C14.35992487 0.08514145 17.38727793 0.82232514 21 1 C20.49491179 6.05088207 19.84058151 11.00422996 18.9375 16 C18.05566652 21.09503791 17.82791424 25.83742724 18 31 C19.98 31.33 21.96 31.66 24 32 C23.875 33.875 23.875 33.875 23 36 C18.55117762 38.22441119 12.9044295 39.10232892 8 38 C5.6273845 35.77275263 5.02340392 34.57590351 4.890625 31.30859375 C5.00921875 30.36113281 5.1278125 29.41367187 5.25 28.4375 C5.35828125 27.48746094 5.4665625 26.53742187 5.578125 25.55859375 C6 23 6 23 7 20 C3.7 20 0.4 20 -3 20 C-3.144375 21.32 -3.28875 22.64 -3.4375 24 C-3.91882647 28.33881429 -4.44885023 32.66953754 -5 37 C-8.63 37 -12.26 37 -16 37 C-14.8699192 26.9615163 -13.63014389 16.97162487 -12 7 C-13.65 7 -15.3 7 -17 7 C-17 5.68 -17 4.36 -17 3 C-14.91798472 2.49453964 -12.83432933 1.99583165 -10.75 1.5 C-9.58984375 1.2215625 -8.4296875 0.943125 -7.234375 0.65625 C-4 0 -4 0 0 0 Z " fill="#20201D" transform="translate(167,19)"/>
<path d="M0 0 C3 2 3 2 3.60009766 3.83178711 C3.70370605 4.5563208 3.80731445 5.28085449 3.9140625 6.02734375 C4.03523438 6.81947266 4.15640625 7.61160156 4.28125 8.42773438 C4.3946875 9.25595703 4.508125 10.08417969 4.625 10.9375 C4.86524048 12.57190196 5.10735315 14.2060301 5.3515625 15.83984375 C5.45291504 16.56550537 5.55426758 17.29116699 5.65869141 18.03881836 C5.98544778 20.20449085 5.98544778 20.20449085 7 23 C12.32748656 12.36341859 12.32748656 12.36341859 12 1 C15.3 1 18.6 1 22 1 C20.02 7.27 18.04 13.54 16 20 C15.34 20 14.68 20 14 20 C13.90976562 20.66515625 13.81953125 21.3303125 13.7265625 22.015625 C12.78341681 25.88962127 11.16571753 29.20151782 9.375 32.75 C9.01817139 33.45793701 8.66134277 34.16587402 8.29370117 34.89526367 C0.36050112 50.23981208 0.36050112 50.23981208 -7 53 C-10.6875 53.3125 -10.6875 53.3125 -14 53 C-16 51 -16 51 -16.25 47.5 C-16 44 -16 44 -14 42 C-13.01 42 -12.02 42 -11 42 C-11 42.66 -11 43.32 -11 44 C-9.02 44.33 -7.04 44.66 -5 45 C-4.66226563 44.4946875 -4.32453125 43.989375 -3.9765625 43.46875 C-3.53054687 42.8190625 -3.08453125 42.169375 -2.625 41.5 C-2.18414062 40.8503125 -1.74328125 40.200625 -1.2890625 39.53125 C-0.86367187 39.0259375 -0.43828125 38.520625 0 38 C0.66 38 1.32 38 2 38 C2 37.01 2 36.02 2 35 C0.35 35 -1.3 35 -3 35 C-3.67047742 30.89644637 -4.33572962 26.7920626 -5 22.6875 C-5.19078125 21.52025391 -5.3815625 20.35300781 -5.578125 19.15039062 C-5.84882813 17.47299805 -5.84882813 17.47299805 -6.125 15.76171875 C-6.29257813 14.73006592 -6.46015625 13.69841309 -6.6328125 12.63549805 C-7 10 -7 10 -7 7 C-8.98 7 -10.96 7 -13 7 C-13.33 5.68 -13.66 4.36 -14 3 C-9.0817389 0.59105579 -5.60140812 -0.53859693 0 0 Z " fill="#21201E" transform="translate(252,19)"/>
<path d="M0 0 C9.57 0 19.14 0 29 0 C28.34698239 5.22414088 27.6358743 9.88348666 26.4375 14.9375 C25.21048916 20.4709615 24.70781574 25.35110426 25 31 C26.98 31 28.96 31 31 31 C30.8125 32.875 30.8125 32.875 30 35 C25.75899514 37.73613217 19.88687242 37.80438785 15 37 C11.15147846 31.22721769 13.15566968 24.29872268 14.421875 17.83203125 C14.61265625 16.89746094 14.8034375 15.96289062 15 15 C15.28617187 13.55173828 15.28617187 13.55173828 15.578125 12.07421875 C16.04535342 9.71471522 16.51943436 7.35681661 17 5 C14.69 5 12.38 5 10 5 C10.00902344 5.94359375 10.01804687 6.8871875 10.02734375 7.859375 C9.80227308 17.6059134 7.94029979 23.96982928 2 32 C1.32517578 32.91652344 1.32517578 32.91652344 0.63671875 33.8515625 C-1.60187477 36.46203964 -2.86036881 36.98682725 -6.3125 37.3125 C-7.199375 37.209375 -8.08625 37.10625 -9 37 C-10.26026798 34.47946405 -9.91874445 33.1457902 -9.5625 30.375 C-9.46066406 29.55773437 -9.35882813 28.74046875 -9.25390625 27.8984375 C-9.17011719 27.27195312 -9.08632813 26.64546875 -9 26 C-5.23312136 26 -4.08809695 26.23537317 -1 28 C-0.72736328 27.1646875 -0.72736328 27.1646875 -0.44921875 26.3125 C0.82037676 22.45813824 2.12405442 18.6458485 3.625 14.875 C5.01515198 11.25041526 5.59838696 7.85548518 6 4 C3.03 3.505 3.03 3.505 0 3 C0 2.01 0 1.02 0 0 Z " fill="#262523" transform="translate(279,20)"/>
<path d="M0 0 C3 1.75 3 1.75 5 5 C5.79699026 10.03671711 6.14936866 15.24784202 4.1484375 20.0390625 C1.14480763 24.02346947 -3.31556366 26.527811 -8 28 C-13.01169894 28.47711432 -17.9715851 28.37804974 -23 28.25 C-24.36065073 28.22989985 -25.7213302 28.21165529 -27.08203125 28.1953125 C-30.388763 28.1484085 -33.69400416 28.08277725 -37 28 C-37 26.35 -37 24.7 -37 23 C-36.34 23.66 -35.68 24.32 -35 25 C-33.08044799 25.2927974 -33.08044799 25.2927974 -30.90234375 25.23046875 C-29.70061523 25.22756836 -29.70061523 25.22756836 -28.47460938 25.22460938 C-27.63736328 25.21236328 -26.80011719 25.20011719 -25.9375 25.1875 C-25.09638672 25.18685547 -24.25527344 25.18621094 -23.38867188 25.18554688 C-19.37484132 25.55307158 -19.37484132 25.55307158 -16 24 C-17.65 23.67 -19.3 23.34 -21 23 C-20.71749338 20.41536498 -20.4243774 17.83268865 -20.125 15.25 C-20.04636719 14.52039062 -19.96773437 13.79078125 -19.88671875 13.0390625 C-19.03675717 5.84707992 -19.03675717 5.84707992 -17 3 C-14.4375 2.375 -14.4375 2.375 -12 2 C-11.67 1.34 -11.34 0.68 -11 0 C-7.11606279 -1.29464574 -3.8906965 -1.04458389 0 0 Z " fill="#1F1F1D" transform="translate(52,29)"/>
<path d="M0 0 C0.66 0.66 1.32 1.32 2 2 C-0.98594424 3.49297212 -3.70853624 3.11755228 -7 3 C-7.66 2.67 -8.32 2.34 -9 2 C-9 2.66 -9 3.32 -9 4 C-9.66 4.66 -10.32 5.32 -11 6 C-11.34342449 7.33076989 -11.67619874 8.66431979 -12 10 C-12.99 11.485 -12.99 11.485 -14 13 C-14.31855376 16.06612399 -14.31855376 16.06612399 -14.25 19.4375 C-14.25515625 20.57058594 -14.2603125 21.70367187 -14.265625 22.87109375 C-14.01398568 25.83525691 -13.54596941 27.50313671 -12 30 C-10.02 30 -8.04 30 -6 30 C-6.29511567 32.85278483 -6.81232941 33.83578823 -9 35.75 C-13.13038997 37.47099582 -16.60508423 38.03316284 -21 37 C-25.15624182 33.60714953 -25.81802361 31.55817284 -26.4375 26.25390625 C-26.85309441 17.61730303 -26.19664668 10.87148434 -20.4453125 4.1953125 C-14.61127088 -1.23810823 -7.59865142 -1.03708628 0 0 Z " fill="#21201E" transform="translate(89,20)"/>
<path d="M0 0 C1.32 0 2.64 0 4 0 C3.67 4.95 3.34 9.9 3 15 C6.3 15 9.6 15 13 15 C13.03738281 14.24074219 13.07476562 13.48148438 13.11328125 12.69921875 C13.17902344 11.70535156 13.24476563 10.71148437 13.3125 9.6875 C13.37050781 8.70136719 13.42851562 7.71523438 13.48828125 6.69921875 C14 4 14 4 15.28125 2.15625 C18.35992487 0.08514145 21.38727793 0.82232514 25 1 C24.49491179 6.05088207 23.84058151 11.00422996 22.9375 16 C22.05566652 21.09503791 21.82791424 25.83742724 22 31 C23.98 31.33 25.96 31.66 28 32 C27.875 33.875 27.875 33.875 27 36 C22.55117762 38.22441119 16.9044295 39.10232892 12 38 C9.63846104 35.778289 9.03010688 34.56063883 8.85546875 31.30859375 C8.96503906 30.36113281 9.07460937 29.41367187 9.1875 28.4375 C9.28417969 27.48746094 9.38085938 26.53742187 9.48046875 25.55859375 C10 23 10 23 12 20 C12.33 21.32 12.66 22.64 13 24 C13.33 23.34 13.66 22.68 14 22 C14.66 22 15.32 22 16 22 C14.65837252 19.35580438 14.65837252 19.35580438 12 17 C8.67414834 16.25976342 5.40085565 16.07139201 2 16 C1.93941406 15.01257812 1.87882813 14.02515625 1.81640625 13.0078125 C1.73261719 11.72648437 1.64882812 10.44515625 1.5625 9.125 C1.48128906 7.84882813 1.40007812 6.57265625 1.31640625 5.2578125 C1.20793973 2.11699848 1.20793973 2.11699848 0 0 Z " fill="#282725" transform="translate(163,19)"/>
<path d="M0 0 C1.299375 0.02900391 1.299375 0.02900391 2.625 0.05859375 C3.49125 0.05988281 4.3575 0.06117187 5.25 0.0625 C8.09013066 0.5810107 8.89370531 1.22376947 10.625 3.49609375 C13.63159055 8.46350422 13.23330993 13.54334847 12.08984375 19.09375 C10.3517128 25.39091296 8.37284144 30.60313631 2.8125 34.43359375 C-0.99437456 35.70255194 -3.49448563 35.34980691 -7.375 34.49609375 C-7.375 33.50609375 -7.375 32.51609375 -7.375 31.49609375 C-6.611875 30.91859375 -5.84875 30.34109375 -5.0625 29.74609375 C-1.08089613 26.41265795 0.37041293 23.04196448 0.875 17.99609375 C1.03760479 11.44877497 1.03760479 11.44877497 -1.375 5.49609375 C-3.41605639 4.60916072 -3.41605639 4.60916072 -5.375 4.49609375 C-3.05223669 0.63755602 -3.05223669 0.63755602 0 0 Z " fill="#201F1C" transform="translate(132.375,19.50390625)"/>
<path d="M0 0 C1.1446875 -0.02578125 2.289375 -0.0515625 3.46875 -0.078125 C6.5 0.25 6.5 0.25 8.40625 1.765625 C8.7671875 2.25546875 9.128125 2.7453125 9.5 3.25 C7.5 4.25 7.5 4.25 4.1875 4 C0.38591487 3.89998606 0.38591487 3.89998606 -2.25 6.5 C-2.9925 7.4075 -3.735 8.315 -4.5 9.25 C-5.02722656 9.8275 -5.55445313 10.405 -6.09765625 11 C-7.98272566 14.02451247 -8.01063142 16.46262835 -8.1875 20 C-8.25324219 21.17046875 -8.31898438 22.3409375 -8.38671875 23.546875 C-8.42410156 24.43890625 -8.46148437 25.3309375 -8.5 26.25 C-9.16 26.25 -9.82 26.25 -10.5 26.25 C-11.16 27.24 -11.82 28.23 -12.5 29.25 C-12.5 28.59 -12.5 27.93 -12.5 27.25 C-14.48 27.58 -16.46 27.91 -18.5 28.25 C-19.62029814 22.76053913 -19.29217969 19.41569441 -17.5 14.25 C-16.84 14.25 -16.18 14.25 -15.5 14.25 C-15.809375 13.21875 -16.11875 12.1875 -16.4375 11.125 C-16.5 7.25 -16.5 7.25 -15.11328125 5.484375 C-10.18165554 1.22477376 -6.55783501 0.08861939 0 0 Z " fill="#1F201C" transform="translate(214.5,19.75)"/>
<path d="M0 0 C1.175625 0.185625 2.35125 0.37125 3.5625 0.5625 C3.34877579 2.30791442 3.13207745 4.05298524 2.90625 5.796875 C2.63595369 7.9715317 2.39130164 10.14937706 2.15625 12.328125 C2.00035115 13.67712396 1.84409833 15.02608206 1.6875 16.375 C1.54570312 17.66019531 1.40390625 18.94539063 1.2578125 20.26953125 C0.57070111 23.52365993 0.28821683 24.74535545 -2.4375 26.5625 C-5.4375 27 -5.4375 27 -8.4375 26.5625 C-11.58879786 23.4261372 -11.94802612 20.73021069 -12.0625 16.375 C-11.91170974 10.30226483 -10.56835749 6.63795481 -6.52734375 2.109375 C-4.1648279 0.36067168 -2.91034987 0.02075116 0 0 Z " fill="#EDEEEC" transform="translate(217.4375,23.4375)"/>
<path d="M0 0 C1.175625 0.185625 2.35125 0.37125 3.5625 0.5625 C3.60504356 2.56204746 3.60330783 4.56291636 3.5625 6.5625 C3.2325 6.8925 2.9025 7.2225 2.5625 7.5625 C2.2163265 10.92640338 1.88940505 14.28594807 1.6640625 17.66015625 C1.30554137 21.30512112 1.06248887 23.13130155 -1.765625 25.5703125 C-4.4375 26.5625 -4.4375 26.5625 -8.4375 26.5625 C-10.78385826 24.3500663 -11.38976549 22.82088899 -11.9765625 19.64453125 C-12.16752656 12.37921691 -11.45779665 7.63470872 -6.52734375 2.109375 C-4.1648279 0.36067168 -2.91034987 0.02075116 0 0 Z " fill="#EBE9E8" transform="translate(85.4375,23.4375)"/>
<path d="M0 0 C2.85649671 4.28474507 2.60345299 7.97122507 2 13 C0.35284637 18.22637395 -2.18931202 22.18398752 -7 25 C-9.8125 25.25 -9.8125 25.25 -12 25 C-13.28626199 20.54953351 -12.61556907 16.8559594 -11.625 12.4375 C-11.48578125 11.77814453 -11.3465625 11.11878906 -11.203125 10.43945312 C-10.81615444 8.62324694 -10.40883227 6.81141031 -10 5 C-9.84273438 4.20722656 -9.68546875 3.41445313 -9.5234375 2.59765625 C-9.35070312 2.07042969 -9.17796875 1.54320313 -9 1 C-5.95699684 -0.52150158 -3.345915 -0.23899393 0 0 Z " fill="#F7F6F4" transform="translate(132,27)"/>
<path d="M0 0 C7.22891566 -0.48192771 7.22891566 -0.48192771 10.5 1.5625 C12.57700386 4.93763128 12.47919182 7.09800946 12 11 C10.59539303 13.87305972 9.25489001 15.74510999 7 18 C4.8359375 18.1953125 4.8359375 18.1953125 2.375 18.125 C1.55773438 18.10695313 0.74046875 18.08890625 -0.1015625 18.0703125 C-0.72804687 18.04710938 -1.35453125 18.02390625 -2 18 C-2.23268915 11.71739294 -1.40454548 6.11980533 0 0 Z " fill="#E7E7E5" transform="translate(34,33)"/>
<path d="M0 0 C1.98 0 3.96 0 6 0 C6.33 0.66 6.66 1.32 7 2 C7.66 1.34 8.32 0.68 9 0 C10 3 10 3 8.99609375 5.3046875 C5.45225617 11.14891088 2.26308867 15.86845567 -4 19 C-7.5 19.1875 -7.5 19.1875 -11 19 C-13 17 -13 17 -13.25 13.5 C-13 10 -13 10 -11 8 C-10.01 8 -9.02 8 -8 8 C-8 8.66 -8 9.32 -8 10 C-5.03 10.495 -5.03 10.495 -2 11 C-1.66226563 10.4946875 -1.32453125 9.989375 -0.9765625 9.46875 C-0.53054687 8.8190625 -0.08453125 8.169375 0.375 7.5 C0.81585938 6.8503125 1.25671875 6.200625 1.7109375 5.53125 C2.13632813 5.0259375 2.56171875 4.520625 3 4 C3.66 4 4.32 4 5 4 C5 3.01 5 2.02 5 1 C3.35 1 1.7 1 0 1 C0 0.67 0 0.34 0 0 Z " fill="#292927" transform="translate(249,53)"/>
<path d="M0 0 C0.33 0.99 0.66 1.98 1 3 C2.65 2.34 4.3 1.68 6 1 C5.01 2.485 5.01 2.485 4 4 C4.99 4.33 5.98 4.66 7 5 C7 5.66 7 6.32 7 7 C4.36 7.33 1.72 7.66 -1 8 C-1.33 11.3 -1.66 14.6 -2 18 C-2.33 18 -2.66 18 -3 18 C-3.33 15.69 -3.66 13.38 -4 11 C-5.32 10.67 -6.64 10.34 -8 10 C-8 9.01 -8 8.02 -8 7 C-8.99 7.495 -8.99 7.495 -10 8 C-10.62669199 10.16467461 -11.15427374 12.35864524 -11.625 14.5625 C-11.88539062 15.76003906 -12.14578125 16.95757812 -12.4140625 18.19140625 C-12.60742188 19.11824219 -12.80078125 20.04507813 -13 21 C-14.20220203 17.46905698 -13.79532349 14.87101018 -13.0625 11.25 C-12.86785156 10.26515625 -12.67320313 9.2803125 -12.47265625 8.265625 C-12.31667969 7.51796875 -12.16070312 6.7703125 -12 6 C-13.32 6 -14.64 6 -16 6 C-16 4.68 -16 3.36 -16 2 C-10.51324804 0.13216954 -5.77807024 -0.2358396 0 0 Z " fill="#2D2C29" transform="translate(124,20)"/>
<path d="M0 0 C0.33 0.66 0.66 1.32 1 2 C2.32 1.67 3.64 1.34 5 1 C3.93533145 7.99639333 0.18011146 14.88438669 -4.5 20.1875 C-7.55434387 22.4018993 -9.30778241 22.42932763 -13 22 C-14.26026798 19.47946405 -13.91874445 18.1457902 -13.5625 15.375 C-13.46066406 14.55773438 -13.35882813 13.74046875 -13.25390625 12.8984375 C-13.17011719 12.27195312 -13.08632813 11.64546875 -13 11 C-9.23312136 11 -8.08809695 11.23537317 -5 13 C-4.80664062 12.39671875 -4.61328125 11.7934375 -4.4140625 11.171875 C-4.15367187 10.37265625 -3.89328125 9.5734375 -3.625 8.75 C-3.36976563 7.96109375 -3.11453125 7.1721875 -2.8515625 6.359375 C-2.04826333 4.13372042 -1.10288338 2.09068328 0 0 Z " fill="#2B2A28" transform="translate(283,35)"/>
<path d="M0 0 C2 3 2 3 2 5 C1.01 5.495 1.01 5.495 0 6 C-0.46651207 8.12576782 -0.46651207 8.12576782 -0.625 10.5625 C-0.69976562 11.38878906 -0.77453125 12.21507812 -0.8515625 13.06640625 C-0.90054688 13.70449219 -0.94953125 14.34257813 -1 15 C0.98 15.99 2.96 16.98 5 18 C6.96822886 16.03177114 6.66248381 12.65191291 7 10 C7.33 10 7.66 10 8 10 C8 12.31 8 14.62 8 17 C8.99 17.33 9.98 17.66 11 18 C12.56908033 20.52796275 13.51094378 23.06566268 14 26 C13.67 26.66 13.34 27.32 13 28 C4.36037822 28.90590209 4.36037822 28.90590209 1.2578125 26.83984375 C-1.37689651 23.7919999 -2.72280283 20.9731595 -3 17 C-3.07541016 15.99453125 -3.07541016 15.99453125 -3.15234375 14.96875 C-3.39600352 9.27685779 -2.27263034 5.2081112 0 0 Z " fill="#252523" transform="translate(197,29)"/>
<path d="M0 0 C12.21 0 24.42 0 37 0 C37 10.125 37 10.125 36 15 C33.69 15 31.38 15 29 15 C29 11.7 29 8.4 29 5 C24.71 5 20.42 5 16 5 C16 4.67 16 4.34 16 4 C20.62 4 25.24 4 30 4 C30.33 5.65 30.66 7.3 31 9 C31.66 9 32.32 9 33 9 C33.33 8.34 33.66 7.68 34 7 C34.66 7 35.32 7 36 7 C36 5.02 36 3.04 36 1 C26.43 1.33 16.86 1.66 7 2 C6.34 5.63 5.68 9.26 5 13 C4.01 14.485 4.01 14.485 3 16 C3.33 12.37 3.66 8.74 4 5 C2.68 4.67 1.36 4.34 0 4 C0 2.68 0 1.36 0 0 Z " fill="#494947" transform="translate(22,7)"/>
<path d="M0 0 C3.3 0 6.6 0 10 0 C8.02 6.27 6.04 12.54 4 19 C1.69 19.33 -0.62 19.66 -3 20 C-3.33 22.31 -3.66 24.62 -4 27 C-4.99 27 -5.98 27 -7 27 C-7 24.36 -7 21.72 -7 19 C-6.34 19.99 -5.68 20.98 -5 22 C0.32748656 11.36341859 0.32748656 11.36341859 0 0 Z " fill="#292A28" transform="translate(264,20)"/>
<path d="M0 0 C8.91 0 17.82 0 27 0 C27 0.33 27 0.66 27 1 C23.37 1.33 19.74 1.66 16 2 C16 2.33 16 2.66 16 3 C14.02 3.33 12.04 3.66 10 4 C9.87882812 4.77085938 9.75765625 5.54171875 9.6328125 6.3359375 C9.38144531 7.84027344 9.38144531 7.84027344 9.125 9.375 C8.96257812 10.37273438 8.80015625 11.37046875 8.6328125 12.3984375 C8 15 8 15 6 17 C5.34 16.67 4.68 16.34 4 16 C4.33 11.71 4.66 7.42 5 3 C3.35 2.67 1.7 2.34 0 2 C0 1.34 0 0.68 0 0 Z " fill="#131312" transform="translate(280,21)"/>
<path d="M0 0 C1.65 0 3.3 0 5 0 C5.33 1.65 5.66 3.3 6 5 C-1.26 5 -8.52 5 -16 5 C-15.67 3.68 -15.34 2.36 -15 1 C-15 1.66 -15 2.32 -15 3 C-12.68690295 2.88658363 -10.37449815 2.75896193 -8.0625 2.625 C-6.77472656 2.55539063 -5.48695312 2.48578125 -4.16015625 2.4140625 C-3.11730469 2.27742188 -2.07445313 2.14078125 -1 2 C-0.67 1.34 -0.34 0.68 0 0 Z " fill="#4E4F4D" transform="translate(117,68)"/>
<path d="M0 0 C0.66 0.66 1.32 1.32 2 2 C5.00972657 2.37296556 5.00972657 2.37296556 8.5390625 2.4140625 C9.84101563 2.45273437 11.14296875 2.49140625 12.484375 2.53125 C13.86457862 2.56270763 15.24478704 2.59395491 16.625 2.625 C18.01304541 2.66317934 19.40106711 2.70223105 20.7890625 2.7421875 C24.19257185 2.83672943 27.59607165 2.92227897 31 3 C29 5 29 5 26.11083984 5.22705078 C24.90637207 5.21657715 23.7019043 5.20610352 22.4609375 5.1953125 C20.50800781 5.18564453 20.50800781 5.18564453 18.515625 5.17578125 C17.13541405 5.15906929 15.75520571 5.14213939 14.375 5.125 C12.98698548 5.11497006 11.59896411 5.10584423 10.2109375 5.09765625 C6.80711974 5.07401863 3.40364494 5.04106867 0 5 C0 3.35 0 1.7 0 0 Z " fill="#61605F" transform="translate(15,52)"/>
<path d="M0 0 C0.33 0.99 0.66 1.98 1 3 C5.29 3 9.58 3 14 3 C14.66 4.98 15.32 6.96 16 9 C15.34 9 14.68 9 14 9 C13.34 10.32 12.68 11.64 12 13 C11.67 11.02 11.34 9.04 11 7 C7.37 6.67 3.74 6.34 0 6 C0 4.02 0 2.04 0 0 Z " fill="#1A1817" transform="translate(163,32)"/>
<path d="M0 0 C1.98 0 3.96 0 6 0 C6.33 0.66 6.66 1.32 7 2 C7.66 1.34 8.32 0.68 9 0 C10 3 10 3 8.78515625 5.48046875 C8.21667969 6.37378906 7.64820313 7.26710938 7.0625 8.1875 C6.49660156 9.08855469 5.93070313 9.98960938 5.34765625 10.91796875 C4.90292969 11.60503906 4.45820313 12.29210937 4 13 C3.01 12.34 2.02 11.68 1 11 C0.34 10.67 -0.32 10.34 -1 10 C0.2739589 7.96166576 1.61061923 5.96147874 3 4 C3.66 4 4.32 4 5 4 C5 3.01 5 2.02 5 1 C3.35 1 1.7 1 0 1 C0 0.67 0 0.34 0 0 Z " fill="#383836" transform="translate(249,53)"/>
<path d="M0 0 C2 3 2 3 2 5 C1.01 5.495 1.01 5.495 0 6 C-0.46651207 8.12576782 -0.46651207 8.12576782 -0.625 10.5625 C-0.69976562 11.38878906 -0.77453125 12.21507812 -0.8515625 13.06640625 C-0.90054688 13.70449219 -0.94953125 14.34257813 -1 15 C0.98 15.99 2.96 16.98 5 18 C4.34 18.33 3.68 18.66 3 19 C2.27840576 20.64363134 1.60648579 22.31050386 1 24 C0.34 24 -0.32 24 -1 24 C-3.97946437 15.2478234 -3.69967977 8.47843281 0 0 Z " fill="#30302E" transform="translate(197,29)"/>
<path d="M0 0 C0.33 0.99 0.66 1.98 1 3 C2.22976562 2.83951172 2.22976562 2.83951172 3.484375 2.67578125 C4.56203125 2.55589844 5.6396875 2.43601563 6.75 2.3125 C7.81734375 2.18488281 8.8846875 2.05726562 9.984375 1.92578125 C13.41660628 2.01025326 14.62398702 2.57208383 17 5 C17 5.66 17 6.32 17 7 C12.71 7 8.42 7 4 7 C4.33 6.34 4.66 5.68 5 5 C3.35 4.67 1.7 4.34 0 4 C0 2.68 0 1.36 0 0 Z " fill="#2A2A28" transform="translate(31,48)"/>
<path d="M0 0 C0.33 0.66 0.66 1.32 1 2 C2.32 1.67 3.64 1.34 5 1 C4.39301257 5.12751449 2.96189209 8.3321148 1 12 C0.34 11.34 -0.32 10.68 -1 10 C-1.99 10.33 -2.98 10.66 -4 11 C-3.5247412 9.35303396 -3.04468109 7.70745272 -2.5625 6.0625 C-2.29566406 5.14597656 -2.02882813 4.22945312 -1.75390625 3.28515625 C-1 1 -1 1 0 0 Z " fill="#403F3D" transform="translate(283,35)"/>
<path d="M0 0 C4.62 0 9.24 0 14 0 C14.33 1.65 14.66 3.3 15 5 C15.66 5 16.32 5 17 5 C17.66 4.34 18.32 3.68 19 3 C19 5.64 19 8.28 19 11 C17.02 11 15.04 11 13 11 C13 7.7 13 4.4 13 1 C8.71 1 4.42 1 0 1 C0 0.67 0 0.34 0 0 Z " fill="#3E3E3C" transform="translate(38,11)"/>
<path d="M0 0 C3.3 0 6.6 0 10 0 C9.01 2.64 8.02 5.28 7 8 C5.68 8 4.36 8 3 8 C3 6.35 3 4.7 3 3 C2.01 2.67 1.02 2.34 0 2 C0 1.34 0 0.68 0 0 Z " fill="#1B1C1B" transform="translate(264,20)"/>
<path d="M0 0 C-0.39803561 2.88575819 -0.79009069 3.82189513 -3.0625 5.75 C-3.701875 6.1625 -4.34125 6.575 -5 7 C-6.32 6.34 -7.64 5.68 -9 5 C-7.93411431 2.09303901 -7.29651501 1.15567038 -4.5 -0.3125 C-2 -1 -2 -1 0 0 Z " fill="#272725" transform="translate(252,64)"/>
<path d="M0 0 C0.33 0.66 0.66 1.32 1 2 C2.98 2 4.96 2 7 2 C6.8125 3.875 6.8125 3.875 6 6 C1.51650857 8.89257512 -3.86971842 8.17931081 -9 8 C-9 7.67 -9 7.34 -9 7 C-8.04287109 6.90912109 -8.04287109 6.90912109 -7.06640625 6.81640625 C-5.82697266 6.69072266 -5.82697266 6.69072266 -4.5625 6.5625 C-3.73878906 6.48128906 -2.91507812 6.40007813 -2.06640625 6.31640625 C-0.01337975 6.21069185 -0.01337975 6.21069185 1 5 C0.01 4.01 -0.98 3.02 -2 2 C-1.34 1.34 -0.68 0.68 0 0 Z " fill="#3B3939" transform="translate(303,49)"/>
<path d="M0 0 C0.99 0.33 1.98 0.66 3 1 C4.11658501 5.68965706 3.80619523 8.53763531 2 13 C1.01 12.67 0.02 12.34 -1 12 C-0.67 8.04 -0.34 4.08 0 0 Z " fill="#232120" transform="translate(285,25)"/>
<path d="M0 0 C0.33 0 0.66 0 1 0 C1 1.65 1 3.3 1 5 C2.98 5 4.96 5 7 5 C6.01 6.485 6.01 6.485 5 8 C2.6171875 8.29296875 2.6171875 8.29296875 -0.125 8.1875 C-1.03507812 8.16042969 -1.94515625 8.13335937 -2.8828125 8.10546875 C-3.58148437 8.07066406 -4.28015625 8.03585938 -5 8 C-4.29423828 7.07960938 -4.29423828 7.07960938 -3.57421875 6.140625 C-2.11347478 4.15430317 -1.03543454 2.2301667 0 0 Z " fill="#181614" transform="translate(30,47)"/>
<path d="M0 0 C0.33 0 0.66 0 1 0 C1.48350422 7.89723556 -0.32335279 15.33532703 -2 23 C-2.33 23 -2.66 23 -3 23 C-3.14635773 14.91780079 -2.80970042 7.67984781 0 0 Z " fill="#A7A6A5" transform="translate(109,44)"/>
<path d="M0 0 C1.32 0 2.64 0 4 0 C3.67 4.95 3.34 9.9 3 15 C5.97 15 8.94 15 12 15 C12 15.33 12 15.66 12 16 C8.7 16 5.4 16 2 16 C1.93941406 15.01257812 1.87882813 14.02515625 1.81640625 13.0078125 C1.73261719 11.72648437 1.64882812 10.44515625 1.5625 9.125 C1.48128906 7.84882813 1.40007812 6.57265625 1.31640625 5.2578125 C1.20793973 2.11699848 1.20793973 2.11699848 0 0 Z " fill="#727170" transform="translate(163,19)"/>
<path d="M0 0 C-0.99 0.495 -0.99 0.495 -2 1 C-2 2.65 -2 4.3 -2 6 C-5.63 5.34 -9.26 4.68 -13 4 C-13 3.67 -13 3.34 -13 3 C-12.195625 2.87625 -11.39125 2.7525 -10.5625 2.625 C-9.716875 2.41875 -8.87125 2.2125 -8 2 C-7.67 1.34 -7.34 0.68 -7 0 C-3.86650268 -1.04449911 -3.01031744 -0.93423645 0 0 Z " fill="#363634" transform="translate(48,29)"/>
<path d="M0 0 C1.65 0 3.3 0 5 0 C4.8125 1.875 4.8125 1.875 4 4 C-0.31297901 6.69561188 -5.09709597 6.19227075 -10 6 C-10 5.67 -10 5.34 -10 5 C-7.69 5 -5.38 5 -3 5 C-2.67 4.34 -2.34 3.68 -2 3 C-1.34 2.67 -0.68 2.34 0 2 C0 1.34 0 0.68 0 0 Z " fill="#444443" transform="translate(230,51)"/>
<path d="M0 0 C0.33 0.66 0.66 1.32 1 2 C-1.03358761 5.35443873 -3.07156811 8.3686554 -6 11 C-9.24133735 11.49235504 -11.88997316 10.96615346 -15 10 C-15 9.67 -15 9.34 -15 9 C-13.783125 8.7525 -12.56625 8.505 -11.3125 8.25 C-6.02664753 6.93087575 -3.02638572 4.53957858 0 0 Z " fill="#C6C6C4" transform="translate(254,63)"/>
<path d="M0 0 C1.30660357 4.29727397 0.6596762 7.60215865 0 12 C1.98 12 3.96 12 6 12 C4 14 4 14 1.375 14.125 C0.59125 14.08375 -0.1925 14.0425 -1 14 C-2.59789351 9.04653013 -1.28306814 4.86717585 0 0 Z " fill="#A09F9C" transform="translate(121,38)"/>
<path d="M0 0 C-0.75 5.75 -0.75 5.75 -3 8 C-3.99 8 -4.98 8 -6 8 C-5.6875 5.125 -5.6875 5.125 -5 2 C-2 0 -2 0 0 0 Z " fill="#1B1A19" transform="translate(266,38)"/>
<path d="M0 0 C1.98 0 3.96 0 6 0 C6.33 0.66 6.66 1.32 7 2 C7.66 1.34 8.32 0.68 9 0 C10 3 10 3 8.5625 6.1875 C7.7890625 7.5796875 7.7890625 7.5796875 7 9 C5 7 5 7 4.875 3.875 C4.91625 2.92625 4.9575 1.9775 5 1 C3.35 1 1.7 1 0 1 C0 0.67 0 0.34 0 0 Z " fill="#2E2E2B" transform="translate(249,53)"/>
<path d="M0 0 C2 3 2 3 2 5 C1.01 5.495 1.01 5.495 0 6 C-0.69093896 8.57951874 -0.69093896 8.57951874 -1.125 11.5625 C-1.29257813 12.57441406 -1.46015625 13.58632813 -1.6328125 14.62890625 C-1.75398437 15.41136719 -1.87515625 16.19382812 -2 17 C-2.33 17 -2.66 17 -3 17 C-3.40368295 10.54107286 -2.5915262 5.93891422 0 0 Z " fill="#636260" transform="translate(197,29)"/>
<path d="M0 0 C0.45375 0.639375 0.9075 1.27875 1.375 1.9375 C2.83921726 4.09702406 2.83921726 4.09702406 5 5 C4.67 6.98 4.34 8.96 4 11 C3.34 9.68 2.68 8.36 2 7 C0.02 7.99 0.02 7.99 -2 9 C-1.34 6.03 -0.68 3.06 0 0 Z " fill="#454543" transform="translate(266,23)"/>
<path d="M0 0 C0.6875 1.8125 0.6875 1.8125 1 4 C-0.0625 5.75 -0.0625 5.75 -2 7 C-5.1875 7.1875 -5.1875 7.1875 -8 7 C-8.33 6.34 -8.66 5.68 -9 5 C-6.69 4.34 -4.38 3.68 -2 3 C-2 2.34 -2 1.68 -2 1 C-1.34 0.67 -0.68 0.34 0 0 Z " fill="#BEBEBC" transform="translate(217,43)"/>
<path d="M0 0 C0.66 0.33 1.32 0.66 2 1 C1.34 1.66 0.68 2.32 0 3 C0.99 3.33 1.98 3.66 3 4 C3 4.66 3 5.32 3 6 C0.125 6.125 0.125 6.125 -3 6 C-3.66 5.34 -4.32 4.68 -5 4 C-4.67 3.01 -4.34 2.02 -4 1 C-3.34 1 -2.68 1 -2 1 C-1.34 0.67 -0.68 0.34 0 0 Z " fill="#484745" transform="translate(128,21)"/>
<path d="M0 0 C2 2 2 2 2.1953125 4.3828125 C2.17210937 5.28773437 2.14890625 6.19265625 2.125 7.125 C2.10695312 8.03507812 2.08890625 8.94515625 2.0703125 9.8828125 C2.03550781 10.93082031 2.03550781 10.93082031 2 12 C1.01 11.34 0.02 10.68 -1 10 C-1.328125 8.125 -1.328125 8.125 -1.25 6 C-1.22679687 4.948125 -1.22679687 4.948125 -1.203125 3.875 C-1 2 -1 2 0 0 Z " fill="#D5D3D2" transform="translate(132,28)"/>
<path d="M0 0 C1.60031344 3.20062687 0.03173691 5.72271806 -1 9 C-1.99 9 -2.98 9 -4 9 C-4 6.36 -4 3.72 -4 1 C-3.01 2.485 -3.01 2.485 -2 4 C-1.34 2.68 -0.68 1.36 0 0 Z " fill="#696866" transform="translate(261,38)"/>
<path d="M0 0 C-0.66 1.32 -1.32 2.64 -2 4 C-3.32 3.67 -4.64 3.34 -6 3 C-6 2.01 -6 1.02 -6 0 C-3 -1 -3 -1 0 0 Z " fill="#E0E0DE" transform="translate(280,44)"/>
<path d="M0 0 C1.32 0.33 2.64 0.66 4 1 C4 1.99 4 2.98 4 4 C2.68 4.33 1.36 4.66 0 5 C0 5.66 0 6.32 0 7 C-0.66 7 -1.32 7 -2 7 C-1.34 4.69 -0.68 2.38 0 0 Z " fill="#D0CFCE" transform="translate(266,39)"/>
<path d="M0 0 C0.66 0.33 1.32 0.66 2 1 C0.35 2.32 -1.3 3.64 -3 5 C-2.67 5.66 -2.34 6.32 -2 7 C-3.65 7.33 -5.3 7.66 -7 8 C-5.50902342 4.2047869 -3.24299151 2.38957269 0 0 Z " fill="#4C4B48" transform="translate(73,21)"/>
<path d="M0 0 C1.32 0.33 2.64 0.66 4 1 C3.34 2.65 2.68 4.3 2 6 C0.68 5.34 -0.64 4.68 -2 4 C-1.34 2.68 -0.68 1.36 0 0 Z " fill="#1D1E1B" transform="translate(245,65)"/>
<path d="M0 0 C1.32 0 2.64 0 4 0 C4 1.65 4 3.3 4 5 C2.68 5.33 1.36 5.66 0 6 C0 4.02 0 2.04 0 0 Z " fill="#1F1D1C" transform="translate(269,49)"/>
<path d="M0 0 C0.33 0.66 0.66 1.32 1 2 C1.66 2.33 2.32 2.66 3 3 C2.01 3.33 1.02 3.66 0 4 C-0.33 4.66 -0.66 5.32 -1 6 C-1.99 6 -2.98 6 -4 6 C-4 4.68 -4 3.36 -4 2 C-2.68 1.34 -1.36 0.68 0 0 Z " fill="#1B1B19" transform="translate(91,50)"/>
<path d="M0 0 C0.66 0.33 1.32 0.66 2 1 C1.6875 3.875 1.6875 3.875 1 7 C0.01 7.66 -0.98 8.32 -2 9 C-1.51421457 5.87709365 -1.0013988 3.00419641 0 0 Z " fill="#1E1E1C" transform="translate(281,44)"/>
<path d="M0 0 C0.66 1.32 1.32 2.64 2 4 C0.25 5.5625 0.25 5.5625 -2 7 C-4.25 6.6875 -4.25 6.6875 -6 6 C-5.195625 5.38125 -4.39125 4.7625 -3.5625 4.125 C-0.96125481 2.25835959 -0.96125481 2.25835959 0 0 Z " fill="#353533" transform="translate(131,45)"/>
<path d="M0 0 C2.97 0.33 5.94 0.66 9 1 C9 1.33 9 1.66 9 2 C6.02148438 2.29296875 6.02148438 2.29296875 3.04296875 2.5859375 C0.70011858 2.92665391 0.70011858 2.92665391 -2 5 C-2 4.01 -2 3.02 -2 2 C-1.34 2 -0.68 2 0 2 C0 1.34 0 0.68 0 0 Z " fill="#333131" transform="translate(80,22)"/>
<path d="M0 0 C0.66 0.99 1.32 1.98 2 3 C-0.97 3.66 -3.94 4.32 -7 5 C-4.49183541 2.49183541 -3.09162264 1.38589981 0 0 Z " fill="#BCBCBA" transform="translate(84,52)"/>
<path d="M0 0 C0.99 0.66 1.98 1.32 3 2 C-0.6441774 4.4294516 -2.71241272 4.16179575 -7 4 C-4.68143083 2.45428722 -2.49361571 1.20381448 0 0 Z " fill="#BFC0BD" transform="translate(136,52)"/>
</svg>
