<?xml version="1.0" encoding="UTF-8"?>
<svg version="1.1" xmlns="http://www.w3.org/2000/svg" width="3000" height="2000">
<path d="M0 0 C28.38 0 56.76 0 86 0 C89.3103125 9.3740625 89.3103125 9.3740625 92.6875 18.9375 C99.07141648 36.94732915 105.61829623 54.89258393 112.25 72.8125 C119.0918211 91.31345851 125.87362297 109.83400223 132.52453613 128.40438843 C133.36497009 130.75062975 134.20678471 133.09637711 135.0501709 135.44155884 C144.13906244 160.73211676 151.66141495 185.74014767 158 212 C158 142.04 158 72.08 158 0 C174.5 0 191 0 208 0 C208 86.79 208 173.58 208 263 C180.94 263 153.88 263 126 263 C121.83318549 252.28533411 117.70542909 241.6098236 113.84765625 230.7890625 C113.3860096 229.5001847 112.92411864 228.21139438 112.46200562 226.92268372 C111.49232154 224.21730091 110.52399359 221.51143881 109.55685425 218.80514526 C107.26101823 212.38128738 104.95766983 205.96012166 102.65464211 199.53883934 C102.14028415 198.10463634 101.62601076 196.67040301 101.11182213 195.2361393 C96.58994227 182.62334205 92.02714499 170.02580537 87.4375 157.4375 C59.59914422 81.01351776 59.59914422 81.01351776 50 47 C49.93887361 56.13013397 50.12187026 65.21877265 50.49389648 74.34033203 C51.15797572 92.48365511 51.13003803 110.62038765 51.10139394 128.77362204 C51.09502291 133.51404765 51.09454598 138.25447433 51.09336853 142.99490356 C51.09029485 151.91873429 51.08213655 160.84255235 51.07201904 169.76637757 C51.0607327 179.94825628 51.05531633 190.13013568 51.05032361 200.31201911 C51.03994927 221.20802132 51.02165492 242.10400623 51 263 C34.17 263 17.34 263 0 263 C0 176.21 0 89.42 0 0 Z " fill="#000000" transform="translate(1286,869)"/>
<path d="M0 0 C120.0476308 0 120.0476308 0 132.5 2.75 C133.3254834 2.9248291 134.1509668 3.0996582 135.00146484 3.27978516 C149.38340915 6.49112304 163.95545433 12.93393835 172.62109375 25.31640625 C180.6183973 38.06023909 183.35811632 50.44934023 183.3125 65.375 C183.32861328 66.42171875 183.34472656 67.4684375 183.36132812 68.546875 C183.36981468 82.29508863 179.59621988 96.99761347 169.9375 107.28515625 C159.44130395 116.57513622 147.70632212 122.04373444 134 125 C135.00546875 125.28488281 136.0109375 125.56976562 137.046875 125.86328125 C153.97112672 130.71518357 169.7587448 136.69837984 179.296875 152.671875 C190.08336897 172.17285382 190.33826239 194.75414445 185 216 C179.87257837 232.05840841 170.51181206 244.25425261 155.6875 252.3125 C110.95530678 275.34150209 39.31085678 263 0 263 C0 176.21 0 89.42 0 0 Z M57 41 C57 62.45 57 83.9 57 106 C67.333125 106.0928125 67.333125 106.0928125 77.875 106.1875 C81.10579346 106.22846802 81.10579346 106.22846802 84.40185547 106.27026367 C86.14029381 106.27903887 87.87873839 106.28668035 89.6171875 106.29296875 C90.4944751 106.30831665 91.3717627 106.32366455 92.27563477 106.33947754 C102.18828847 106.3435998 111.55326243 103.77752788 119 97 C125.52788971 88.78072988 128.04188413 79.38576563 127 69 C125.6012428 60.1137778 123.10302085 53.54394863 116.32421875 47.5078125 C104.9235712 39.25638023 88.95024574 40.62181793 75.625 40.8125 C69.47875 40.874375 63.3325 40.93625 57 41 Z M57 147 C57 172.08 57 197.16 57 223 C91.47717815 225.38596313 91.47717815 225.38596313 122.0234375 212.21875 C130.34269126 203.65377989 131.59810374 193.89837689 131.47070312 182.42382812 C131.12517856 172.66827283 129.17232961 163.94131308 122.17578125 156.75 C112.16043086 148.69456558 100.55282911 146.6513731 88.0546875 146.8046875 C86.86081421 146.80770874 86.86081421 146.80770874 85.64282227 146.81079102 C82.72015471 146.82111452 79.79757045 146.84903487 76.875 146.875 C70.31625 146.91625 63.7575 146.9575 57 147 Z " fill="#000000" transform="translate(346,869)"/>
<path d="M0 0 C12.2603252 11.65100181 19.80733428 26.68297609 21.34375 43.65234375 C21.36161975 45.37914792 21.36596869 47.10612113 21.36010742 48.83300781 C21.35774582 49.73504944 21.35538422 50.63709106 21.35295105 51.56646729 C21.34839653 52.59897614 21.34839653 52.59897614 21.34375 53.65234375 C14.05953452 53.67547291 6.7753269 53.69326176 -0.50891781 53.70415592 C-3.89096813 53.7093835 -7.2729934 53.71647886 -10.6550293 53.7277832 C-14.53954777 53.74068642 -18.42405597 53.74557299 -22.30859375 53.75 C-23.52836411 53.75516129 -24.74813446 53.76032257 -26.00486755 53.76564026 C-27.68649742 53.76575356 -27.68649742 53.76575356 -29.40209961 53.76586914 C-30.39471298 53.76808975 -31.38732635 53.77031036 -32.41001892 53.77259827 C-34.65625 53.65234375 -34.65625 53.65234375 -35.65625 52.65234375 C-35.93043122 50.84334377 -36.17504074 49.02983646 -36.40625 47.21484375 C-37.90687183 38.05887578 -41.10198466 30.86430593 -48.5234375 25.05859375 C-57.8733658 18.89380586 -70.5515702 19.21283346 -81.2421875 21.37890625 C-91.96420933 24.70084249 -98.08452277 29.90848584 -103.65625 39.65234375 C-111.98793385 57.01377144 -112.81738738 75.73780999 -112.859375 94.6171875 C-112.86220238 95.48010469 -112.86502975 96.34302189 -112.86794281 97.23208809 C-112.88287712 101.80454939 -112.89214125 106.37697965 -112.89648438 110.94946289 C-112.90194131 115.61877872 -112.92592697 120.28779889 -112.95445633 124.95702267 C-112.97329385 128.59410875 -112.97829951 132.23112683 -112.97982025 135.86825752 C-112.98280314 137.58666145 -112.9906791 139.30506549 -113.00400543 141.02342033 C-113.14033592 159.96348887 -111.85367538 181.16052446 -99.65625 196.65234375 C-92.20225855 203.42208208 -81.65023359 207.25057557 -71.65625 207.65234375 C-70.56699219 207.70390625 -69.47773438 207.75546875 -68.35546875 207.80859375 C-56.27492085 208.10966659 -45.85056657 206.449908 -34.65625 201.65234375 C-34.32625 182.84234375 -33.99625 164.03234375 -33.65625 144.65234375 C-45.86625 144.65234375 -58.07625 144.65234375 -70.65625 144.65234375 C-70.65625 130.46234375 -70.65625 116.27234375 -70.65625 101.65234375 C-40.62625 101.65234375 -10.59625 101.65234375 20.34375 101.65234375 C20.34375 145.21234375 20.34375 188.77234375 20.34375 233.65234375 C-25.84739596 249.0493924 -82.81036186 259.98651315 -129.140625 237.52734375 C-148.19647966 227.36422126 -160.55506982 211.17586989 -167.015625 190.79882812 C-173.92423379 167.65077611 -174.00285892 143.10350351 -173.91699219 119.13842773 C-173.90624307 115.58755479 -173.91698755 112.03718628 -173.9296875 108.48632812 C-173.9545519 69.51422968 -171.4104429 31.58522857 -143.34375 1.96484375 C-108.4918554 -31.87426075 -35.61534587 -31.47768069 0 0 Z " fill="#000000" transform="translate(2362.65625,886.34765625)"/>
<path d="M0 0 C26.73 0 53.46 0 81 0 C89.05701547 27.62405304 89.05701547 27.62405304 92.6171875 40.27734375 C93.03138976 41.74636159 93.44567931 43.21535482 93.86004639 44.68432617 C94.96832973 48.61444666 96.07521519 52.54495949 97.18177032 56.47556686 C98.12887585 59.8391137 99.07682383 63.20242291 100.02473259 66.56574345 C108.36236425 96.15005453 116.67523474 125.7413349 124.98213863 155.33428669 C130.32052774 174.35199177 135.66427167 193.36814528 141.02734375 212.37890625 C141.50570605 214.07494342 141.98405904 215.77098323 142.46240234 217.46702576 C144.48334017 224.63210405 146.50486603 231.79701344 148.52949047 238.96105099 C149.33460459 241.8108131 150.13870314 244.66086104 150.94253731 247.51098442 C151.49038384 249.45208804 152.03960059 251.39280477 152.58885193 253.33351135 C153.06996178 255.04014198 153.06996178 255.04014198 153.56079102 256.78125 C153.84068375 257.77189453 154.12057648 258.76253906 154.40895081 259.78320312 C155 262 155 262 155 263 C135.2 263 115.4 263 95 263 C88.07940136 241.08477096 88.07940136 241.08477096 86.2265625 234.375 C86.01309174 233.60994141 85.79962097 232.84488281 85.5796814 232.05664062 C85.14310747 230.48841346 84.70814579 228.91973646 84.27490234 227.35058594 C83.60927275 224.94311723 82.93571772 222.53795003 82.26171875 220.1328125 C81.83286812 218.58867079 81.40446439 217.04440488 80.9765625 215.5 C80.77664703 214.78763184 80.57673157 214.07526367 80.37075806 213.34130859 C79.58096903 210.46240732 79 208.00132908 79 205 C52.6 205.33 26.2 205.66 -1 206 C-6.28 224.81 -11.56 243.62 -17 263 C-35.81 263 -54.62 263 -74 263 C-72.73962469 256.69812344 -71.44902544 250.62818694 -69.68774414 244.48266602 C-69.46394829 243.6899807 -69.24015244 242.89729538 -69.00957489 242.08058929 C-68.27173808 239.47064968 -67.52847738 236.86228868 -66.78515625 234.25390625 C-66.25722982 232.39067367 -65.72964485 230.52734431 -65.20237732 228.66392517 C-63.7877592 223.66809342 -62.36845278 218.67360483 -60.94827271 213.67935181 C-59.45617411 208.42896403 -57.96854891 203.17730906 -56.48046875 197.92578125 C-53.80321711 188.47990633 -51.12245682 179.03503205 -48.43982124 169.59068489 C-45.94571008 160.80984926 -43.45461467 152.02816089 -40.96484375 143.24609375 C-40.20876009 140.57925869 -39.45265845 137.91242874 -38.6965332 135.24560547 C-38.51394298 134.60160168 -38.33135275 133.95759789 -38.14322948 133.29407883 C-37.0488987 129.43468122 -35.95380404 125.57550128 -34.85809231 121.71649551 C-30.22199414 105.3884611 -25.60249879 89.0558043 -20.99515533 72.7196312 C-20.08980836 69.50981748 -19.18420352 66.30007664 -18.27850342 63.09036255 C-17.98015469 62.03302477 -17.68180595 60.97568699 -17.37441635 59.88630867 C-16.77210234 57.75173763 -16.16977945 55.6171691 -15.56744766 53.48260307 C-13.78481706 47.16452711 -12.00404961 40.84592954 -10.22458458 34.52696133 C-9.11836254 30.60025207 -8.01050067 26.67400684 -6.90221024 22.74788094 C-6.38164672 20.90239602 -5.86179988 19.05670879 -5.34269333 17.21081352 C-4.62987424 14.6763974 -3.91460744 12.14268465 -3.19873047 9.60913086 C-2.98900856 8.86114479 -2.77928665 8.11315872 -2.56320953 7.34250641 C-1.11404505 2.22809009 -1.11404505 2.22809009 0 0 Z M39 43 C38.80114197 43.78512466 38.60228394 44.57024933 38.3973999 45.37916565 C36.26217071 53.80902896 34.12634741 62.23874156 31.99017334 70.66836548 C31.16569723 73.9218916 30.34136614 77.17545442 29.51715088 80.42904663 C25.40528845 96.6599926 21.29195994 112.89046835 17.1328125 129.109375 C16.84833252 130.21945419 16.56385254 131.32953339 16.27075195 132.47325134 C14.96853192 137.55339189 13.66364965 142.6328245 12.35449219 147.71118164 C11.90030941 149.48061067 11.44620258 151.25005919 10.9921875 153.01953125 C10.7868338 153.811922 10.5814801 154.60431274 10.36990356 155.42071533 C9.35874521 159.16224517 9.35874521 159.16224517 9 163 C29.13 163 49.26 163 70 163 C67.56625 153.265 65.1325 143.53 62.625 133.5 C55.08333333 103.33333333 47.54166667 73.16666667 40 43 C39.67 43 39.34 43 39 43 Z " fill="#000000" transform="translate(2000,869)"/>
<path d="M0 0 C1.13072182 0.00539291 1.13072182 0.00539291 2.2842865 0.01089478 C3.46956436 0.01067574 3.46956436 0.01067574 4.67878723 0.01045227 C7.30309245 0.0111516 9.92732759 0.01894489 12.55162048 0.02676392 C14.36623089 0.02862803 16.18084179 0.03005196 17.99545288 0.03105164 C22.78111653 0.03487737 27.56675003 0.04470813 32.35240173 0.05575562 C37.23195488 0.06596854 42.11151287 0.070549 46.99107361 0.07559204 C56.57246709 0.08633035 66.15383816 0.10340744 75.73521423 0.12442017 C76.05656845 1.27401718 76.05656845 1.27401718 76.38441467 2.44683838 C86.71278774 39.39192569 97.06218296 76.33091491 107.48521423 113.24942017 C115.49832753 141.63281248 123.49134525 170.0217911 131.4666748 198.41582489 C132.28856461 201.34184645 133.11056946 204.26783566 133.93260193 207.19381714 C135.22995287 211.81180385 136.52698423 216.4298802 137.82375145 221.04803085 C138.29780853 222.73619546 138.77193742 224.4243399 139.24614906 226.11246109 C140.32232902 229.94375 141.39719674 233.77539344 142.46888733 237.60794067 C143.36092654 240.79662237 144.26256351 243.98244694 145.16828918 247.16726685 C145.6319826 248.8088921 146.09561766 250.45053383 146.55918884 252.0921936 C146.7777205 252.85443363 146.99625216 253.61667366 147.22140598 254.40201187 C148.06514669 257.40238676 148.73521423 259.9912 148.73521423 263.12442017 C128.93521423 263.12442017 109.13521423 263.12442017 88.73521423 263.12442017 C83.45521423 244.31442017 78.17521423 225.50442017 72.73521423 206.12442017 C46.33521423 205.79442017 19.93521423 205.46442017 -7.26478577 205.12442017 C-7.92478577 208.42442017 -8.58478577 211.72442017 -9.26478577 215.12442017 C-9.70636006 216.90661456 -10.16890644 218.68401791 -10.66932678 220.45059204 C-10.9262178 221.36433594 -11.18310883 222.27807983 -11.44778442 223.21951294 C-11.71868393 224.16781982 -11.98958344 225.11612671 -12.26869202 226.09317017 C-12.55203903 227.09529541 -12.83538605 228.09742065 -13.12731934 229.12991333 C-13.72136805 231.22788296 -14.31726206 233.32533091 -14.91493225 235.42227173 C-15.83230412 238.64203342 -16.7433176 241.8635451 -17.65345764 245.08535767 C-18.23316612 247.12973335 -18.81323134 249.17400792 -19.39369202 251.21817017 C-19.80307762 252.66492126 -19.80307762 252.66492126 -20.22073364 254.14089966 C-20.4744725 255.02942627 -20.72821136 255.91795288 -20.98963928 256.83340454 C-21.21232986 257.61598633 -21.43502045 258.39856812 -21.66445923 259.2048645 C-22.26478577 261.12442017 -22.26478577 261.12442017 -23.26478577 263.12442017 C-42.07478577 263.12442017 -60.88478577 263.12442017 -80.26478577 263.12442017 C-72.17231386 233.06666738 -72.17231386 233.06666738 -68.23051453 219.27105713 C-67.94389576 218.26704487 -67.65727699 217.26303261 -67.36197281 216.22859573 C-66.9194121 214.67849367 -66.9194121 214.67849367 -66.46791077 213.09707642 C-65.83455071 210.87327872 -65.20136668 208.6494309 -64.56834412 206.42553711 C-63.23783709 201.75250881 -61.90623474 197.07979476 -60.57368469 192.40734863 C-58.48361829 185.07863844 -56.396162 177.74918644 -54.30921936 170.41958618 C-53.60814338 167.95741148 -52.90706307 165.49523802 -52.20597839 163.0330658 C-51.86062168 161.82018702 -51.51526497 160.60730824 -51.1594429 159.35767555 C-50.12002959 155.70766005 -49.08037193 152.05771423 -48.04063416 148.40779114 C-43.01997032 130.78255311 -38.00959755 113.15442851 -33.0124054 95.52252197 C-32.08489243 92.24995715 -31.15681738 88.97755207 -30.22853661 85.70520496 C-26.67969964 73.1945643 -23.13812792 60.68192398 -19.61100769 48.16514587 C-18.20055508 43.159988 -16.78806513 38.15540572 -15.37513542 33.15094662 C-14.23567997 29.114244 -13.09918879 25.07672277 -11.96504211 21.03852558 C-11.11700919 18.02216005 -10.26477458 15.00698148 -9.41322327 11.99160767 C-9.10697021 10.89747055 -8.80071716 9.80333344 -8.48518372 8.67604065 C-8.06550323 7.19425072 -8.06550323 7.19425072 -7.63734436 5.68252563 C-7.39486969 4.82093842 -7.15239502 3.9593512 -6.90257263 3.07165527 C-5.65513952 -0.73689846 -3.70109355 0.00745 0 0 Z M33.73521423 43.12442017 C29.84642656 56.83599496 26.26680062 70.61476807 22.77818298 84.43301392 C22.22490448 86.61972582 21.67154294 88.80641671 21.11810303 90.99308777 C19.96955944 95.53332283 18.82266862 100.0739715 17.67686462 104.61489868 C16.20682741 110.43981848 14.73153964 116.26339475 13.25493908 122.08665371 C12.11583796 126.58203192 10.97998183 131.07822522 9.84507179 135.57466316 C9.30195214 137.72440047 8.75769626 139.87385105 8.212286 142.02300835 C7.45507128 145.00836304 6.70234886 147.99481504 5.95079041 150.9815979 C5.61192055 152.31158562 5.61192055 152.31158562 5.26620483 153.66844177 C5.06307678 154.47955414 4.85994873 155.2906665 4.65066528 156.12635803 C4.47280078 156.83027396 4.29493628 157.53418989 4.11168194 158.25943661 C3.63627924 160.29743409 3.63627924 160.29743409 3.73521423 163.12442017 C23.53521423 163.12442017 43.33521423 163.12442017 63.73521423 163.12442017 C63.05764139 157.70383743 62.32076962 152.99135789 60.9886322 147.77578735 C60.72730247 146.74422264 60.72730247 146.74422264 60.46069336 145.69181824 C59.88747679 143.43379199 59.30745785 141.17757316 58.72740173 138.92129517 C58.31917509 137.31840031 57.91139811 135.71539088 57.50404358 134.11227417 C56.42922989 129.88710403 55.34873295 125.66340834 54.26689148 121.44003296 C53.19335578 117.2457702 52.12447043 113.05032391 51.05552673 108.85488892 C50.6344934 107.20266532 50.21345258 105.55044363 49.79240417 103.89822388 C49.58539131 103.08584763 49.37837845 102.27347137 49.16509247 101.43647766 C48.54167982 98.99077075 47.91776766 96.54519172 47.29374695 94.09963989 C44.75804055 84.159457 42.2364628 74.21592536 39.74302673 64.26504517 C39.46393463 63.15417542 39.18484253 62.04330566 38.89729309 60.89877319 C37.4213077 54.99103332 36.02681556 49.07526162 34.73521423 43.12442017 C34.40521423 43.12442017 34.07521423 43.12442017 33.73521423 43.12442017 Z " fill="#000000" transform="translate(652.2647857666016,868.8755798339844)"/>
<path d="M0 0 C1.13072182 0.00539291 1.13072182 0.00539291 2.2842865 0.01089478 C3.46956436 0.01067574 3.46956436 0.01067574 4.67878723 0.01045227 C7.30309245 0.0111516 9.92732759 0.01894489 12.55162048 0.02676392 C14.36623089 0.02862803 16.18084179 0.03005196 17.99545288 0.03105164 C22.78111653 0.03487737 27.56675003 0.04470813 32.35240173 0.05575562 C37.23195488 0.06596854 42.11151287 0.070549 46.99107361 0.07559204 C56.57246709 0.08633035 66.15383816 0.10340744 75.73521423 0.12442017 C87.26210872 40.95021161 98.76912824 81.7815056 110.23521423 122.62442017 C118.25027215 151.17393627 126.27745284 179.7199879 134.32777405 208.25958252 C135.03933622 210.78221836 135.75080743 213.30487983 136.46226501 215.82754517 C137.57246353 219.76387598 138.68297247 223.70011908 139.79375267 227.63628578 C140.19546125 229.05983985 140.59710764 230.48341147 140.99868202 231.9070034 C141.37213023 233.23077971 141.74573779 234.55451107 142.11951733 235.87819386 C142.64568201 237.74251828 143.17052123 239.60721663 143.69532776 241.47192383 C144.4151034 244.00006317 145.14534429 246.52269527 145.89204407 249.04278564 C146.44319382 250.91781265 146.44319382 250.91781265 147.00547791 252.83071899 C147.33770859 253.9456221 147.66993927 255.06052521 148.01223755 256.20921326 C148.73521423 259.12442017 148.73521423 259.12442017 148.73521423 263.12442017 C129.26521423 263.12442017 109.79521423 263.12442017 89.73521423 263.12442017 C86.36021423 254.12442017 86.36021423 254.12442017 85.10948181 249.71817017 C84.82560608 248.72430298 84.54173035 247.73043579 84.24925232 246.70645142 C83.96231506 245.6893811 83.67537781 244.67231079 83.37974548 243.62442017 C83.10755188 242.66922485 82.83535828 241.71402954 82.55491638 240.72988892 C81.54887596 237.19576674 80.54862832 233.65999761 79.54771423 230.12442017 C77.29958923 222.20442017 75.05146423 214.28442017 72.73521423 206.12442017 C46.33521423 205.79442017 19.93521423 205.46442017 -7.26478577 205.12442017 C-7.92478577 208.75442017 -8.58478577 212.38442017 -9.26478577 216.12442017 C-10.22041433 219.76305108 -11.20813532 223.36534779 -12.26869202 226.97207642 C-12.55203903 227.95059067 -12.83538605 228.92910492 -13.12731934 229.93727112 C-13.72062675 231.98241455 -14.31652415 234.02680829 -14.91493225 236.07046509 C-15.83361121 239.20852689 -16.74418275 242.34885632 -17.65345764 245.48965454 C-18.23307117 247.48393025 -18.81313292 249.47807576 -19.39369202 251.47207642 C-19.80307762 252.88131126 -19.80307762 252.88131126 -20.22073364 254.3190155 C-20.4744725 255.18429367 -20.72821136 256.04957184 -20.98963928 256.94107056 C-21.21232986 257.70287125 -21.43502045 258.46467194 -21.66445923 259.2495575 C-22.26478577 261.12442017 -22.26478577 261.12442017 -23.26478577 263.12442017 C-41.74478577 263.12442017 -60.22478577 263.12442017 -79.26478577 263.12442017 C-78.13979149 254.12446593 -78.13979149 254.12446593 -77.09550476 250.47517395 C-76.86079342 249.64401503 -76.62608208 248.8128561 -76.38425827 247.95651054 C-76.12778645 247.07114679 -75.87131462 246.18578304 -75.60707092 245.27359009 C-75.19849539 243.83646258 -75.19849539 243.83646258 -74.7816658 242.3703022 C-73.87796722 239.19687752 -72.96591695 236.02591712 -72.05384827 232.85488892 C-71.41164603 230.60578771 -70.7699845 228.35653205 -70.12882996 226.10713196 C-68.76491658 221.32616697 -67.39737106 216.54626232 -66.02687073 211.7671814 C-63.8780941 204.27413039 -61.73724241 196.77883041 -59.59779358 189.28311157 C-57.11329807 180.58024932 -54.62712914 171.87786949 -52.13833618 163.1762352 C-47.25635244 146.10661858 -42.40240343 129.02918557 -37.56613922 111.94656754 C-36.65125607 108.71558694 -35.73561652 105.48482077 -34.81996155 102.25405884 C-33.74372702 98.45668634 -32.6675098 94.65930899 -31.59153748 90.86186218 C-28.95423163 81.55446171 -26.31382171 72.24794448 -23.67238617 62.94171524 C-22.34580994 58.26777439 -21.01953145 53.59374905 -19.69323349 48.91972923 C-18.63578105 45.19326316 -17.57813807 41.4668514 -16.52003479 37.74057007 C-15.54311738 34.30018351 -14.56672806 30.8596475 -13.59072113 27.41900253 C-13.06642578 25.57127875 -12.54156328 23.72371592 -12.01667786 21.87615967 C-10.25110856 15.65038921 -8.52518845 9.41842799 -6.88575745 3.15811157 C-5.69386372 -0.74535794 -3.76767531 0.00758402 0 0 Z M33.73521423 43.12442017 C30.39754788 54.93817888 27.25364923 66.78304569 24.30162048 78.69863892 C23.89740356 80.32181364 23.49293261 81.94492512 23.08822632 83.56797791 C22.03476046 87.79496598 20.98393008 92.02260396 19.9339447 96.25045776 C18.26248015 102.9797702 16.58806164 109.70834713 14.91180038 116.43646622 C14.50653733 118.06346479 14.10152898 119.69052683 13.69678116 121.31765366 C11.01078914 132.11272909 8.27873447 142.89328476 5.3815918 153.6341095 C5.16047226 154.46340469 4.93935272 155.29269989 4.71153259 156.14712524 C4.52102829 156.85113968 4.33052399 157.55515411 4.13424683 158.28050232 C3.62945982 160.29867485 3.62945982 160.29867485 3.73521423 163.12442017 C23.53521423 163.12442017 43.33521423 163.12442017 63.73521423 163.12442017 C63.05191076 157.6579924 62.25011984 152.6384985 60.88096619 147.36099243 C60.69538651 146.62944946 60.50980682 145.89790649 60.31860352 145.14419556 C59.7080514 142.74190492 59.09074525 140.34140399 58.47349548 137.94082642 C58.04042108 136.24107185 57.6078284 134.54119448 57.1756897 132.84120178 C56.03629607 128.36337248 54.89141391 123.88696611 53.74504089 119.41091919 C51.93143954 112.32636527 50.12526434 105.23991228 48.3200798 98.15320969 C47.88123512 96.43042649 47.44220208 94.70769126 47.00297928 92.98500443 C43.65321922 79.84107026 40.41272609 66.67627025 37.29658508 53.47473145 C36.47080718 50.01741776 35.6055395 46.5707674 34.73521423 43.12442017 C34.40521423 43.12442017 34.07521423 43.12442017 33.73521423 43.12442017 Z " fill="#000000" transform="translate(2505.2647857666016,868.8755798339844)"/>
<path d="M0 0 C49.17 0 98.34 0 149 0 C149 14.19 149 28.38 149 43 C118.64 43 88.28 43 57 43 C57 63.46 57 83.92 57 105 C85.38 105 113.76 105 143 105 C143 119.52 143 134.04 143 149 C114.62 149 86.24 149 57 149 C57 172.43 57 195.86 57 220 C88.35 220 119.7 220 152 220 C152 234.19 152 248.38 152 263 C101.84 263 51.68 263 0 263 C0 176.21 0 89.42 0 0 Z " fill="#000000" transform="translate(1060,869)"/>
<path d="M0 0 C1.08667969 1.04027344 1.08667969 1.04027344 2.1953125 2.1015625 C2.96101563 2.81570313 3.72671875 3.52984375 4.515625 4.265625 C19.73891055 19.69532798 23.1953125 39.1423819 23.1953125 60.1015625 C4.3853125 60.1015625 -14.4246875 60.1015625 -33.8046875 60.1015625 C-34.7946875 52.1815625 -34.7946875 52.1815625 -35.8046875 44.1015625 C-38.34623365 36.21400548 -40.99866935 29.95939776 -48.5546875 25.8515625 C-60.17527692 20.62882568 -71.86004769 21.09690097 -83.8046875 25.1015625 C-92.19868312 29.37774895 -97.3732199 36.81287492 -100.67578125 45.4453125 C-102.04393039 49.87641144 -103.10858469 54.31339519 -104.0546875 58.8515625 C-104.21799561 59.6240332 -104.38130371 60.39650391 -104.54956055 61.19238281 C-107.68195204 77.55357949 -106.99250431 94.53182415 -106.98999023 111.10717773 C-106.98990928 113.79930381 -106.99681722 116.49125861 -107.01049805 119.18334961 C-108.7084543 161.60887144 -108.7084543 161.60887144 -92.69921875 199.51171875 C-84.25266969 207.52212931 -75.0064972 209.41562656 -63.6015625 209.24609375 C-55.28287025 208.81621719 -48.31886386 206.44141455 -41.8046875 201.1015625 C-34.63779601 192.63981247 -32.73735644 181.73926308 -32.015625 170.96484375 C-31.8046875 169.1015625 -31.8046875 169.1015625 -30.8046875 168.1015625 C-29.02476826 168.00785626 -27.24112011 167.98411979 -25.45874023 167.98803711 C-23.74707924 167.98815041 -23.74707924 167.98815041 -22.00083923 167.98826599 C-20.7591951 167.99342728 -19.51755096 167.99858856 -18.23828125 168.00390625 C-16.34264183 168.00602867 -16.34264183 168.00602867 -14.40870667 168.00819397 C-11.04343861 168.01285668 -7.6782376 168.0218477 -4.31298828 168.03289795 C-0.8811908 168.04311404 2.55061359 168.04769201 5.98242188 168.05273438 C12.72007074 168.0637887 19.45768775 168.0805454 26.1953125 168.1015625 C25.90477224 171.27158098 25.6036565 174.44051317 25.30078125 177.609375 C25.21953003 178.49729736 25.13827881 179.38521973 25.05456543 180.30004883 C23.09179822 200.59907123 15.28020057 218.76824898 -0.3671875 232.2890625 C-25.3239537 251.1323883 -59.27602038 253.75507232 -89.359375 249.78125 C-107.24670779 247.16378098 -122.75881208 240.68408034 -136.8046875 229.1015625 C-137.75021484 228.32619141 -137.75021484 228.32619141 -138.71484375 227.53515625 C-157.79154543 210.19665063 -164.93016586 180.82712959 -166.8046875 156.1015625 C-167.35419495 144.43637109 -167.24010723 132.73859866 -167.19580078 121.06396484 C-167.17870973 116.51560973 -167.18885968 111.96778118 -167.20612431 107.41944408 C-167.32771752 69.70361733 -165.23223619 32.54290859 -138.20703125 3.44921875 C-106.15590141 -27.87229188 -34.13521048 -29.96955767 0 0 Z " fill="#000000" transform="translate(1730.8046875,884.8984375)"/>
<path d="M0 0 C18.81 0 37.62 0 57 0 C57 72.6 57 145.2 57 220 C86.7 220 116.4 220 147 220 C147 234.19 147 248.38 147 263 C98.49 263 49.98 263 0 263 C0 176.21 0 89.42 0 0 Z " fill="#000000" transform="translate(857,869)"/>
<path d="M0 0 C18.48 0 36.96 0 56 0 C56 86.79 56 173.58 56 263 C37.52 263 19.04 263 0 263 C0 176.21 0 89.42 0 0 Z " fill="#000000" transform="translate(1815,869)"/>
</svg>
