<?xml version="1.0" standalone="no"?>
<!DOCTYPE svg PUBLIC "-//W3C//DTD SVG 20010904//EN"
 "http://www.w3.org/TR/2001/REC-SVG-20010904/DTD/svg10.dtd">
<svg version="1.0" xmlns="http://www.w3.org/2000/svg"
 width="230.000000pt" height="95.000000pt" viewBox="0 0 230.000000 95.000000"
 preserveAspectRatio="xMidYMid meet">

<g transform="translate(0.000000,95.000000) scale(0.100000,-0.100000)"
fill="#000000" stroke="none">
<path d="M984 800 c-38 -24 -84 -106 -84 -149 0 -30 1 -31 45 -31 25 0 45 4
45 8 0 20 43 52 69 52 35 0 50 -17 58 -64 l5 -35 -53 -3 -54 -3 0 -65 0 -65
53 -3 c44 -3 52 -6 52 -23 0 -23 -18 -61 -34 -71 -24 -16 -56 -7 -78 22 -18
25 -29 30 -65 30 -41 0 -43 -1 -43 -30 0 -62 58 -141 117 -161 52 -17 96 -4
137 41 54 60 69 124 64 288 -3 123 -6 142 -29 187 -45 89 -133 121 -205 75z"/>
<path d="M1984 801 c-38 -23 -72 -91 -76 -151 l-3 -45 41 -3 c40 -3 43 -1 60
35 13 26 27 39 43 41 30 5 41 -12 41 -65 0 -39 -7 -51 -95 -154 -52 -61 -98
-121 -101 -133 -3 -13 -4 -42 -2 -67 l3 -44 150 0 150 0 0 65 0 65 -67 3 -68
3 54 72 c63 85 76 119 76 202 0 147 -105 237 -206 176z"/>
<path d="M136 795 c-7 -20 -7 -532 0 -562 5 -20 13 -23 50 -23 l44 0 2 233 3
232 62 3 63 3 2 -233 3 -233 45 0 45 0 0 295 0 295 -156 3 c-135 2 -158 0
-163 -13z"/>
<path d="M535 797 c-3 -7 -4 -140 -3 -297 l3 -285 36 -3 c21 -2 40 2 46 10 5
7 34 73 64 147 l54 134 2 -124 c4 -170 3 -169 58 -169 l45 0 0 301 0 300 -42
-3 -42 -3 -57 -139 c-32 -76 -60 -141 -63 -144 -3 -3 -6 61 -6 141 l0 147 -45
0 c-28 0 -48 -5 -50 -13z"/>
<path d="M1685 801 c-3 -6 -42 -83 -86 -172 -80 -161 -80 -162 -77 -233 l3
-71 88 -3 87 -3 0 -54 0 -55 44 0 45 0 3 53 c3 48 5 52 31 55 27 3 27 4 27 73
0 67 -1 69 -25 69 -25 0 -25 1 -25 93 0 50 -3 129 -7 175 l-6 82 -48 0 c-26 0
-50 -4 -54 -9z m15 -271 l0 -70 -35 0 c-19 0 -35 2 -35 4 0 9 61 136 65 136 3
0 5 -31 5 -70z"/>
<path d="M1284 527 c-3 -8 -4 -39 -2 -68 l3 -54 90 0 90 0 0 65 0 65 -88 3
c-68 2 -89 0 -93 -11z"/>
</g>
</svg>
